  0
SECTION
  2
HEADER
  9
$ACADVER
  1
AC1009
  9
$FILLMODE
 70
1
  9
$EXTMIN
 10
-0.0991
 20
-2.6162
 30
0.0000
  9
$EXTMAX
 10
88.9991
 20
69.9491
 30
0.0000
  0
ENDSEC
  0
SECTION
  2
TABLES
  0
TABLE
  2
LTYPE
 70
1
  0
LTYPE
  2
CONTINUOUS
 70
64
  3
Solid line
 72
65
 73
0
 40
0
  0
ENDTAB
  0
TABLE
  2
LAYER
 70
255
  0
LAYER
  2
1
 70
64
 62
12
  6
CONTINUOUS
  0
LAYER
  2
16
 70
64
 62
132
  6
CONTINUOUS
  0
LAYER
  2
17
 70
64
 62
110
  6
CONTINUOUS
  0
LAYER
  2
18
 70
64
 62
110
  6
CONTINUOUS
  0
LAYER
  2
19
 70
64
 62
53
  6
CONTINUOUS
  0
LAYER
  2
20
 70
64
 62
31
  6
CONTINUOUS
  0
LAYER
  2
21
 70
64
 62
253
  6
CONTINUOUS
  0
LAYER
  2
22
 70
64
 62
253
  6
CONTINUOUS
  0
LAYER
  2
23
 70
64
 62
53
  6
CONTINUOUS
  0
LAYER
  2
24
 70
64
 62
53
  6
CONTINUOUS
  0
LAYER
  2
25
 70
64
 62
253
  6
CONTINUOUS
  0
LAYER
  2
26
 70
64
 62
253
  6
CONTINUOUS
  0
LAYER
  2
27
 70
64
 62
253
  6
CONTINUOUS
  0
LAYER
  2
28
 70
64
 62
253
  6
CONTINUOUS
  0
LAYER
  2
39
 70
64
 62
12
  6
CONTINUOUS
  0
LAYER
  2
40
 70
64
 62
132
  6
CONTINUOUS
  0
LAYER
  2
41
 70
64
 62
12
  6
CONTINUOUS
  0
LAYER
  2
42
 70
64
 62
132
  6
CONTINUOUS
  0
LAYER
  2
43
 70
64
 62
110
  6
CONTINUOUS
  0
LAYER
  2
45
 70
64
 62
253
  6
CONTINUOUS
  0
LAYER
  2
48
 70
64
 62
253
  6
CONTINUOUS
  0
LAYER
  2
49
 70
64
 62
253
  6
CONTINUOUS
  0
LAYER
  2
51
 70
64
 62
253
  6
CONTINUOUS
  0
LAYER
  2
52
 70
64
 62
253
  6
CONTINUOUS
  0
ENDTAB
  0
ENDSEC
  0
SECTION
  2
BLOCKS
  0
BLOCK
  8
0
  2
RECT
 70
64
 10
0.0000
 20
0.0000
 30
0.0000
  3
RECT
  0
SOLID
  8
0
 10
-0.5000
 20
-0.5000
 30
0.0000
 11
0.5000
 21
-0.5000
 31
0.0000
 12
-0.5000
 22
0.5000
 32
0.0000
 13
0.5000
 23
0.5000
 33
0.0000
  0
ENDBLK
  8
0
  0
BLOCK
  8
0
  2
PIE
 70
64
 10
0.0000
 20
0.0000
 30
0.0000
  3
PIE
  0
POLYLINE
  8
0
 66
1
 10
0.0000
 20
0.0000
 30
0.0000
 40
0.5000
 41
0.5000
 70
0
  0
VERTEX
  8
0
 10
0.0000
 20
-0.2500
 30
0.0000
 42
1.0000
  0
VERTEX
  8
0
 10
0.0000
 20
0.2500
 30
0.0000
 42
1.0000
  0
VERTEX
  8
0
 10
0.0000
 20
-0.2500
 30
0.0000
  0
SEQEND
  8
0
  0
ENDBLK
  8
0
  0
BLOCK
  8
0
  2
OCTAGONP
 70
64
 10
0.0000
 20
0.0000
 30
0.0000
  3
OCTAGONP
  0
POLYLINE
  8
0
 66
1
 10
0.0000
 20
0.0000
 30
0.0000
 40
0.5000
 41
0.5000
 70
0
  0
VERTEX
  8
0
 10
-0.2500
 20
-0.1036
 30
0.0000
  0
VERTEX
  8
0
 10
-0.2500
 20
0.1036
 30
0.0000
  0
VERTEX
  8
0
 10
-0.1036
 20
0.2500
 30
0.0000
  0
VERTEX
  8
0
 10
0.1036
 20
0.2500
 30
0.0000
  0
VERTEX
  8
0
 10
0.2500
 20
0.1036
 30
0.0000
  0
VERTEX
  8
0
 10
0.2500
 20
-0.1036
 30
0.0000
  0
VERTEX
  8
0
 10
0.1036
 20
-0.2500
 30
0.0000
  0
VERTEX
  8
0
 10
-0.1036
 20
-0.2500
 30
0.0000
  0
VERTEX
  8
0
 10
-0.2500
 20
-0.1036
 30
0.0000
  0
VERTEX
  8
0
 10
-0.2500
 20
0.1036
 30
0.0000
  0
SEQEND
  8
0
  0
ENDBLK
  8
0
  0
BLOCK
  8
0
  2
SQUAREP
 70
64
 10
0.0000
 20
0.0000
 30
0.0000
  3
SQUAREP
  0
SOLID
  8
0
 10
-0.5000
 20
-0.5000
 30
0.0000
 11
0.5000
 21
-0.5000
 31
0.0000
 12
-0.5000
 22
0.5000
 32
0.0000
 13
0.5000
 23
0.5000
 33
0.0000
  0
ENDBLK
  8
0
  0
BLOCK
  8
0
  2
ROUNDP
 70
64
 10
0.0000
 20
0.0000
 30
0.0000
  3
ROUNDP
  0
POLYLINE
  8
0
 66
1
 10
0.0000
 20
0.0000
 30
0.0000
 40
0.5000
 41
0.5000
 70
0
  0
VERTEX
  8
0
 10
0.0000
 20
-0.2500
 30
0.0000
 42
1.0000
  0
VERTEX
  8
0
 10
0.0000
 20
0.2500
 30
0.0000
 42
1.0000
  0
VERTEX
  8
0
 10
0.0000
 20
-0.2500
 30
0.0000
  0
SEQEND
  8
0
  0
ENDBLK
  8
0
  0
BLOCK
  8
0
  2
ANNULUSP
 70
64
 10
0.0000
 20
0.0000
 30
0.0000
  3
ANNULUSP
  0
POLYLINE
  8
0
 66
1
 10
0.0000
 20
0.0000
 30
0.0000
 40
0.5000
 41
0.5000
 70
0
  0
VERTEX
  8
0
 10
0.0000
 20
-0.2500
 30
0.0000
 42
1.0000
  0
VERTEX
  8
0
 10
0.0000
 20
0.2500
 30
0.0000
 42
1.0000
  0
VERTEX
  8
0
 10
0.0000
 20
-0.2500
 30
0.0000
  0
SEQEND
  8
0
  0
ENDBLK
  8
0
  0
BLOCK
  8
0
  2
THERMALP
 70
64
 10
0.0000
 20
0.0000
 30
0.0000
  3
THERMALP
  0
POLYLINE
  8
0
 66
1
 10
0.0000
 20
0.0000
 30
0.0000
 40
0.1000
 41
0.1000
 70
0
  0
VERTEX
  8
0
 10
-0.2379
 20
0.4500
 30
0.0000
  0
VERTEX
  8
0
 10
0.2379
 20
0.4500
 30
0.0000
  0
SEQEND
  8
0
  0
POLYLINE
  8
0
 66
1
 10
0.0000
 20
0.0000
 30
0.0000
 40
0.0500
 41
0.0500
 70
0
  0
VERTEX
  8
0
 10
0.2379
 20
0.4250
 30
0.0000
 42
1.0000
  0
VERTEX
  8
0
 10
0.2379
 20
0.4750
 30
0.0000
  0
SEQEND
  8
0
  0
POLYLINE
  8
0
 66
1
 10
0.0000
 20
0.0000
 30
0.0000
 40
0.0500
 41
0.0500
 70
0
  0
VERTEX
  8
0
 10
-0.2379
 20
0.4750
 30
0.0000
 42
1.0000
  0
VERTEX
  8
0
 10
-0.2379
 20
0.4250
 30
0.0000
  0
SEQEND
  8
0
  0
POLYLINE
  8
0
 66
1
 10
0.0000
 20
0.0000
 30
0.0000
 40
0.1000
 41
0.1000
 70
0
  0
VERTEX
  8
0
 10
0.4500
 20
0.2379
 30
0.0000
  0
VERTEX
  8
0
 10
0.4500
 20
-0.2379
 30
0.0000
  0
SEQEND
  8
0
  0
POLYLINE
  8
0
 66
1
 10
0.0000
 20
0.0000
 30
0.0000
 40
0.0500
 41
0.0500
 70
0
  0
VERTEX
  8
0
 10
0.4250
 20
-0.2379
 30
0.0000
 42
1.0000
  0
VERTEX
  8
0
 10
0.4750
 20
-0.2379
 30
0.0000
  0
SEQEND
  8
0
  0
POLYLINE
  8
0
 66
1
 10
0.0000
 20
0.0000
 30
0.0000
 40
0.0500
 41
0.0500
 70
0
  0
VERTEX
  8
0
 10
0.4750
 20
0.2379
 30
0.0000
 42
1.0000
  0
VERTEX
  8
0
 10
0.4250
 20
0.2379
 30
0.0000
  0
SEQEND
  8
0
  0
POLYLINE
  8
0
 66
1
 10
0.0000
 20
0.0000
 30
0.0000
 40
0.1000
 41
0.1000
 70
0
  0
VERTEX
  8
0
 10
0.2379
 20
-0.4500
 30
0.0000
  0
VERTEX
  8
0
 10
-0.2379
 20
-0.4500
 30
0.0000
  0
SEQEND
  8
0
  0
POLYLINE
  8
0
 66
1
 10
0.0000
 20
0.0000
 30
0.0000
 40
0.0500
 41
0.0500
 70
0
  0
VERTEX
  8
0
 10
-0.2379
 20
-0.4250
 30
0.0000
 42
1.0000
  0
VERTEX
  8
0
 10
-0.2379
 20
-0.4750
 30
0.0000
  0
SEQEND
  8
0
  0
POLYLINE
  8
0
 66
1
 10
0.0000
 20
0.0000
 30
0.0000
 40
0.0500
 41
0.0500
 70
0
  0
VERTEX
  8
0
 10
0.2379
 20
-0.4750
 30
0.0000
 42
1.0000
  0
VERTEX
  8
0
 10
0.2379
 20
-0.4250
 30
0.0000
  0
SEQEND
  8
0
  0
POLYLINE
  8
0
 66
1
 10
0.0000
 20
0.0000
 30
0.0000
 40
0.1000
 41
0.1000
 70
0
  0
VERTEX
  8
0
 10
-0.4500
 20
-0.2379
 30
0.0000
  0
VERTEX
  8
0
 10
-0.4500
 20
0.2379
 30
0.0000
  0
SEQEND
  8
0
  0
POLYLINE
  8
0
 66
1
 10
0.0000
 20
0.0000
 30
0.0000
 40
0.0500
 41
0.0500
 70
0
  0
VERTEX
  8
0
 10
-0.4250
 20
0.2379
 30
0.0000
 42
1.0000
  0
VERTEX
  8
0
 10
-0.4750
 20
0.2379
 30
0.0000
  0
SEQEND
  8
0
  0
POLYLINE
  8
0
 66
1
 10
0.0000
 20
0.0000
 30
0.0000
 40
0.0500
 41
0.0500
 70
0
  0
VERTEX
  8
0
 10
-0.4750
 20
-0.2379
 30
0.0000
 42
1.0000
  0
VERTEX
  8
0
 10
-0.4250
 20
-0.2379
 30
0.0000
  0
SEQEND
  8
0
  0
ENDBLK
  8
0
  0
BLOCK
  8
0
  2
OCTAGONV
 70
64
 10
0.0000
 20
0.0000
 30
0.0000
  3
OCTAGONV
  0
POLYLINE
  8
0
 66
1
 10
0.0000
 20
0.0000
 30
0.0000
 40
0.5000
 41
0.5000
 70
0
  0
VERTEX
  8
0
 10
-0.2500
 20
-0.1036
 30
0.0000
  0
VERTEX
  8
0
 10
-0.2500
 20
0.1036
 30
0.0000
  0
VERTEX
  8
0
 10
-0.1036
 20
0.2500
 30
0.0000
  0
VERTEX
  8
0
 10
0.1036
 20
0.2500
 30
0.0000
  0
VERTEX
  8
0
 10
0.2500
 20
0.1036
 30
0.0000
  0
VERTEX
  8
0
 10
0.2500
 20
-0.1036
 30
0.0000
  0
VERTEX
  8
0
 10
0.1036
 20
-0.2500
 30
0.0000
  0
VERTEX
  8
0
 10
-0.1036
 20
-0.2500
 30
0.0000
  0
VERTEX
  8
0
 10
-0.2500
 20
-0.1036
 30
0.0000
  0
VERTEX
  8
0
 10
-0.2500
 20
0.1036
 30
0.0000
  0
SEQEND
  8
0
  0
ENDBLK
  8
0
  0
BLOCK
  8
0
  2
SQUAREV
 70
64
 10
0.0000
 20
0.0000
 30
0.0000
  3
SQUAREV
  0
SOLID
  8
0
 10
-0.5000
 20
-0.5000
 30
0.0000
 11
0.5000
 21
-0.5000
 31
0.0000
 12
-0.5000
 22
0.5000
 32
0.0000
 13
0.5000
 23
0.5000
 33
0.0000
  0
ENDBLK
  8
0
  0
BLOCK
  8
0
  2
ROUNDV
 70
64
 10
0.0000
 20
0.0000
 30
0.0000
  3
ROUNDV
  0
POLYLINE
  8
0
 66
1
 10
0.0000
 20
0.0000
 30
0.0000
 40
0.5000
 41
0.5000
 70
0
  0
VERTEX
  8
0
 10
0.0000
 20
-0.2500
 30
0.0000
 42
1.0000
  0
VERTEX
  8
0
 10
0.0000
 20
0.2500
 30
0.0000
 42
1.0000
  0
VERTEX
  8
0
 10
0.0000
 20
-0.2500
 30
0.0000
  0
SEQEND
  8
0
  0
ENDBLK
  8
0
  0
BLOCK
  8
0
  2
ANNULUSV
 70
64
 10
0.0000
 20
0.0000
 30
0.0000
  3
ANNULUSV
  0
POLYLINE
  8
0
 66
1
 10
0.0000
 20
0.0000
 30
0.0000
 40
0.5000
 41
0.5000
 70
0
  0
VERTEX
  8
0
 10
0.0000
 20
-0.2500
 30
0.0000
 42
1.0000
  0
VERTEX
  8
0
 10
0.0000
 20
0.2500
 30
0.0000
 42
1.0000
  0
VERTEX
  8
0
 10
0.0000
 20
-0.2500
 30
0.0000
  0
SEQEND
  8
0
  0
ENDBLK
  8
0
  0
BLOCK
  8
0
  2
THERMALV
 70
64
 10
0.0000
 20
0.0000
 30
0.0000
  3
THERMALV
  0
POLYLINE
  8
0
 66
1
 10
0.0000
 20
0.0000
 30
0.0000
 40
0.1000
 41
0.1000
 70
0
  0
VERTEX
  8
0
 10
-0.2379
 20
0.4500
 30
0.0000
  0
VERTEX
  8
0
 10
0.2379
 20
0.4500
 30
0.0000
  0
SEQEND
  8
0
  0
POLYLINE
  8
0
 66
1
 10
0.0000
 20
0.0000
 30
0.0000
 40
0.0500
 41
0.0500
 70
0
  0
VERTEX
  8
0
 10
0.2379
 20
0.4250
 30
0.0000
 42
1.0000
  0
VERTEX
  8
0
 10
0.2379
 20
0.4750
 30
0.0000
  0
SEQEND
  8
0
  0
POLYLINE
  8
0
 66
1
 10
0.0000
 20
0.0000
 30
0.0000
 40
0.0500
 41
0.0500
 70
0
  0
VERTEX
  8
0
 10
-0.2379
 20
0.4750
 30
0.0000
 42
1.0000
  0
VERTEX
  8
0
 10
-0.2379
 20
0.4250
 30
0.0000
  0
SEQEND
  8
0
  0
POLYLINE
  8
0
 66
1
 10
0.0000
 20
0.0000
 30
0.0000
 40
0.1000
 41
0.1000
 70
0
  0
VERTEX
  8
0
 10
0.4500
 20
0.2379
 30
0.0000
  0
VERTEX
  8
0
 10
0.4500
 20
-0.2379
 30
0.0000
  0
SEQEND
  8
0
  0
POLYLINE
  8
0
 66
1
 10
0.0000
 20
0.0000
 30
0.0000
 40
0.0500
 41
0.0500
 70
0
  0
VERTEX
  8
0
 10
0.4250
 20
-0.2379
 30
0.0000
 42
1.0000
  0
VERTEX
  8
0
 10
0.4750
 20
-0.2379
 30
0.0000
  0
SEQEND
  8
0
  0
POLYLINE
  8
0
 66
1
 10
0.0000
 20
0.0000
 30
0.0000
 40
0.0500
 41
0.0500
 70
0
  0
VERTEX
  8
0
 10
0.4750
 20
0.2379
 30
0.0000
 42
1.0000
  0
VERTEX
  8
0
 10
0.4250
 20
0.2379
 30
0.0000
  0
SEQEND
  8
0
  0
POLYLINE
  8
0
 66
1
 10
0.0000
 20
0.0000
 30
0.0000
 40
0.1000
 41
0.1000
 70
0
  0
VERTEX
  8
0
 10
0.2379
 20
-0.4500
 30
0.0000
  0
VERTEX
  8
0
 10
-0.2379
 20
-0.4500
 30
0.0000
  0
SEQEND
  8
0
  0
POLYLINE
  8
0
 66
1
 10
0.0000
 20
0.0000
 30
0.0000
 40
0.0500
 41
0.0500
 70
0
  0
VERTEX
  8
0
 10
-0.2379
 20
-0.4250
 30
0.0000
 42
1.0000
  0
VERTEX
  8
0
 10
-0.2379
 20
-0.4750
 30
0.0000
  0
SEQEND
  8
0
  0
POLYLINE
  8
0
 66
1
 10
0.0000
 20
0.0000
 30
0.0000
 40
0.0500
 41
0.0500
 70
0
  0
VERTEX
  8
0
 10
0.2379
 20
-0.4750
 30
0.0000
 42
1.0000
  0
VERTEX
  8
0
 10
0.2379
 20
-0.4250
 30
0.0000
  0
SEQEND
  8
0
  0
POLYLINE
  8
0
 66
1
 10
0.0000
 20
0.0000
 30
0.0000
 40
0.1000
 41
0.1000
 70
0
  0
VERTEX
  8
0
 10
-0.4500
 20
-0.2379
 30
0.0000
  0
VERTEX
  8
0
 10
-0.4500
 20
0.2379
 30
0.0000
  0
SEQEND
  8
0
  0
POLYLINE
  8
0
 66
1
 10
0.0000
 20
0.0000
 30
0.0000
 40
0.0500
 41
0.0500
 70
0
  0
VERTEX
  8
0
 10
-0.4250
 20
0.2379
 30
0.0000
 42
1.0000
  0
VERTEX
  8
0
 10
-0.4750
 20
0.2379
 30
0.0000
  0
SEQEND
  8
0
  0
POLYLINE
  8
0
 66
1
 10
0.0000
 20
0.0000
 30
0.0000
 40
0.0500
 41
0.0500
 70
0
  0
VERTEX
  8
0
 10
-0.4750
 20
-0.2379
 30
0.0000
 42
1.0000
  0
VERTEX
  8
0
 10
-0.4250
 20
-0.2379
 30
0.0000
  0
SEQEND
  8
0
  0
ENDBLK
  8
0
  0
ENDSEC
  0
SECTION
  2
ENTITIES
  0
POLYLINE
  8
20
 66
1
 10
0.0000
 20
0.0000
 30
0.0000
 40
0.1524
 41
0.1524
 70
0
  0
VERTEX
  8
20
 10
0.0000
 20
0.0000
 30
0.0000
  0
VERTEX
  8
20
 10
0.0000
 20
43.1800
 30
0.0000
  0
SEQEND
  8
0
  0
POLYLINE
  8
20
 66
1
 10
0.0000
 20
0.0000
 30
0.0000
 40
0.0762
 41
0.0762
 70
0
  0
VERTEX
  8
20
 10
0.0381
 20
43.1800
 30
0.0000
 42
1.0000
  0
VERTEX
  8
20
 10
-0.0381
 20
43.1800
 30
0.0000
  0
SEQEND
  8
0
  0
POLYLINE
  8
20
 66
1
 10
0.0000
 20
0.0000
 30
0.0000
 40
0.0762
 41
0.0762
 70
0
  0
VERTEX
  8
20
 10
-0.0381
 20
0.0000
 30
0.0000
 42
1.0000
  0
VERTEX
  8
20
 10
0.0381
 20
0.0000
 30
0.0000
  0
SEQEND
  8
0
  0
POLYLINE
  8
20
 66
1
 10
0.0000
 20
0.0000
 30
0.0000
 40
0.1524
 41
0.1524
 70
0
  0
VERTEX
  8
20
 10
0.0000
 20
43.1800
 30
0.0000
  0
VERTEX
  8
20
 10
50.8000
 20
43.1800
 30
0.0000
  0
SEQEND
  8
0
  0
POLYLINE
  8
20
 66
1
 10
0.0000
 20
0.0000
 30
0.0000
 40
0.0762
 41
0.0762
 70
0
  0
VERTEX
  8
20
 10
50.8000
 20
43.1419
 30
0.0000
 42
1.0000
  0
VERTEX
  8
20
 10
50.8000
 20
43.2181
 30
0.0000
  0
SEQEND
  8
0
  0
POLYLINE
  8
20
 66
1
 10
0.0000
 20
0.0000
 30
0.0000
 40
0.0762
 41
0.0762
 70
0
  0
VERTEX
  8
20
 10
0.0000
 20
43.2181
 30
0.0000
 42
1.0000
  0
VERTEX
  8
20
 10
0.0000
 20
43.1419
 30
0.0000
  0
SEQEND
  8
0
  0
POLYLINE
  8
20
 66
1
 10
0.0000
 20
0.0000
 30
0.0000
 40
0.1524
 41
0.1524
 70
0
  0
VERTEX
  8
20
 10
50.8000
 20
43.1800
 30
0.0000
  0
VERTEX
  8
20
 10
50.8000
 20
69.8500
 30
0.0000
  0
SEQEND
  8
0
  0
POLYLINE
  8
20
 66
1
 10
0.0000
 20
0.0000
 30
0.0000
 40
0.0762
 41
0.0762
 70
0
  0
VERTEX
  8
20
 10
50.8381
 20
69.8500
 30
0.0000
 42
1.0000
  0
VERTEX
  8
20
 10
50.7619
 20
69.8500
 30
0.0000
  0
SEQEND
  8
0
  0
POLYLINE
  8
20
 66
1
 10
0.0000
 20
0.0000
 30
0.0000
 40
0.0762
 41
0.0762
 70
0
  0
VERTEX
  8
20
 10
50.7619
 20
43.1800
 30
0.0000
 42
1.0000
  0
VERTEX
  8
20
 10
50.8381
 20
43.1800
 30
0.0000
  0
SEQEND
  8
0
  0
POLYLINE
  8
20
 66
1
 10
0.0000
 20
0.0000
 30
0.0000
 40
0.1524
 41
0.1524
 70
0
  0
VERTEX
  8
20
 10
50.8000
 20
69.8500
 30
0.0000
  0
VERTEX
  8
20
 10
88.9000
 20
69.8500
 30
0.0000
  0
SEQEND
  8
0
  0
POLYLINE
  8
20
 66
1
 10
0.0000
 20
0.0000
 30
0.0000
 40
0.0762
 41
0.0762
 70
0
  0
VERTEX
  8
20
 10
88.9000
 20
69.8119
 30
0.0000
 42
1.0000
  0
VERTEX
  8
20
 10
88.9000
 20
69.8881
 30
0.0000
  0
SEQEND
  8
0
  0
POLYLINE
  8
20
 66
1
 10
0.0000
 20
0.0000
 30
0.0000
 40
0.0762
 41
0.0762
 70
0
  0
VERTEX
  8
20
 10
50.8000
 20
69.8881
 30
0.0000
 42
1.0000
  0
VERTEX
  8
20
 10
50.8000
 20
69.8119
 30
0.0000
  0
SEQEND
  8
0
  0
POLYLINE
  8
20
 66
1
 10
0.0000
 20
0.0000
 30
0.0000
 40
0.1524
 41
0.1524
 70
0
  0
VERTEX
  8
20
 10
88.9000
 20
69.8500
 30
0.0000
  0
VERTEX
  8
20
 10
88.9000
 20
0.0000
 30
0.0000
  0
SEQEND
  8
0
  0
POLYLINE
  8
20
 66
1
 10
0.0000
 20
0.0000
 30
0.0000
 40
0.0762
 41
0.0762
 70
0
  0
VERTEX
  8
20
 10
88.8619
 20
0.0000
 30
0.0000
 42
1.0000
  0
VERTEX
  8
20
 10
88.9381
 20
0.0000
 30
0.0000
  0
SEQEND
  8
0
  0
POLYLINE
  8
20
 66
1
 10
0.0000
 20
0.0000
 30
0.0000
 40
0.0762
 41
0.0762
 70
0
  0
VERTEX
  8
20
 10
88.9381
 20
69.8500
 30
0.0000
 42
1.0000
  0
VERTEX
  8
20
 10
88.8619
 20
69.8500
 30
0.0000
  0
SEQEND
  8
0
  0
POLYLINE
  8
20
 66
1
 10
0.0000
 20
0.0000
 30
0.0000
 40
0.1524
 41
0.1524
 70
0
  0
VERTEX
  8
20
 10
88.9000
 20
0.0000
 30
0.0000
  0
VERTEX
  8
20
 10
0.0000
 20
0.0000
 30
0.0000
  0
SEQEND
  8
0
  0
POLYLINE
  8
20
 66
1
 10
0.0000
 20
0.0000
 30
0.0000
 40
0.0762
 41
0.0762
 70
0
  0
VERTEX
  8
20
 10
0.0000
 20
0.0381
 30
0.0000
 42
1.0000
  0
VERTEX
  8
20
 10
0.0000
 20
-0.0381
 30
0.0000
  0
SEQEND
  8
0
  0
POLYLINE
  8
20
 66
1
 10
0.0000
 20
0.0000
 30
0.0000
 40
0.0762
 41
0.0762
 70
0
  0
VERTEX
  8
20
 10
88.9000
 20
-0.0381
 30
0.0000
 42
1.0000
  0
VERTEX
  8
20
 10
88.9000
 20
0.0381
 30
0.0000
  0
SEQEND
  8
0
  0
CIRCLE
  8
20
 10
85.0900
 20
66.0400
 30
0.0000
 40
1.6000
  0
CIRCLE
  8
20
 10
3.8100
 20
3.8100
 30
0.0000
 40
1.6000
  0
CIRCLE
  8
20
 10
78.7400
 20
7.6200
 30
0.0000
 40
1.6000
  0
POINT
  8
23
 10
83.8200
 20
54.6100
 30
0.0000
  0
POLYLINE
  8
21
 66
1
 10
0.0000
 20
0.0000
 30
0.0000
 40
0.1524
 41
0.1524
 70
0
  0
VERTEX
  8
21
 10
69.8500
 20
53.3400
 30
0.0000
  0
VERTEX
  8
21
 10
69.8500
 20
55.8800
 30
0.0000
  0
SEQEND
  8
0
  0
POLYLINE
  8
21
 66
1
 10
0.0000
 20
0.0000
 30
0.0000
 40
0.0762
 41
0.0762
 70
0
  0
VERTEX
  8
21
 10
69.8881
 20
55.8800
 30
0.0000
 42
1.0000
  0
VERTEX
  8
21
 10
69.8119
 20
55.8800
 30
0.0000
  0
SEQEND
  8
0
  0
POLYLINE
  8
21
 66
1
 10
0.0000
 20
0.0000
 30
0.0000
 40
0.0762
 41
0.0762
 70
0
  0
VERTEX
  8
21
 10
69.8119
 20
53.3400
 30
0.0000
 42
1.0000
  0
VERTEX
  8
21
 10
69.8881
 20
53.3400
 30
0.0000
  0
SEQEND
  8
0
  0
POLYLINE
  8
21
 66
1
 10
0.0000
 20
0.0000
 30
0.0000
 40
0.1524
 41
0.1524
 70
0
  0
VERTEX
  8
21
 10
69.8500
 20
55.8800
 30
0.0000
  0
VERTEX
  8
21
 10
85.0900
 20
55.8800
 30
0.0000
  0
SEQEND
  8
0
  0
POLYLINE
  8
21
 66
1
 10
0.0000
 20
0.0000
 30
0.0000
 40
0.0762
 41
0.0762
 70
0
  0
VERTEX
  8
21
 10
85.0900
 20
55.8419
 30
0.0000
 42
1.0000
  0
VERTEX
  8
21
 10
85.0900
 20
55.9181
 30
0.0000
  0
SEQEND
  8
0
  0
POLYLINE
  8
21
 66
1
 10
0.0000
 20
0.0000
 30
0.0000
 40
0.0762
 41
0.0762
 70
0
  0
VERTEX
  8
21
 10
69.8500
 20
55.9181
 30
0.0000
 42
1.0000
  0
VERTEX
  8
21
 10
69.8500
 20
55.8419
 30
0.0000
  0
SEQEND
  8
0
  0
POLYLINE
  8
21
 66
1
 10
0.0000
 20
0.0000
 30
0.0000
 40
0.1524
 41
0.1524
 70
0
  0
VERTEX
  8
21
 10
85.0900
 20
55.8800
 30
0.0000
  0
VERTEX
  8
21
 10
85.0900
 20
53.3400
 30
0.0000
  0
SEQEND
  8
0
  0
POLYLINE
  8
21
 66
1
 10
0.0000
 20
0.0000
 30
0.0000
 40
0.0762
 41
0.0762
 70
0
  0
VERTEX
  8
21
 10
85.0519
 20
53.3400
 30
0.0000
 42
1.0000
  0
VERTEX
  8
21
 10
85.1281
 20
53.3400
 30
0.0000
  0
SEQEND
  8
0
  0
POLYLINE
  8
21
 66
1
 10
0.0000
 20
0.0000
 30
0.0000
 40
0.0762
 41
0.0762
 70
0
  0
VERTEX
  8
21
 10
85.1281
 20
55.8800
 30
0.0000
 42
1.0000
  0
VERTEX
  8
21
 10
85.0519
 20
55.8800
 30
0.0000
  0
SEQEND
  8
0
  0
POLYLINE
  8
21
 66
1
 10
0.0000
 20
0.0000
 30
0.0000
 40
0.1524
 41
0.1524
 70
0
  0
VERTEX
  8
21
 10
85.0900
 20
53.3400
 30
0.0000
  0
VERTEX
  8
21
 10
69.8500
 20
53.3400
 30
0.0000
  0
SEQEND
  8
0
  0
POLYLINE
  8
21
 66
1
 10
0.0000
 20
0.0000
 30
0.0000
 40
0.0762
 41
0.0762
 70
0
  0
VERTEX
  8
21
 10
69.8500
 20
53.3781
 30
0.0000
 42
1.0000
  0
VERTEX
  8
21
 10
69.8500
 20
53.3019
 30
0.0000
  0
SEQEND
  8
0
  0
POLYLINE
  8
21
 66
1
 10
0.0000
 20
0.0000
 30
0.0000
 40
0.0762
 41
0.0762
 70
0
  0
VERTEX
  8
21
 10
85.0900
 20
53.3019
 30
0.0000
 42
1.0000
  0
VERTEX
  8
21
 10
85.0900
 20
53.3781
 30
0.0000
  0
SEQEND
  8
0
  0
POLYLINE
  8
21
 66
1
 10
0.0000
 20
0.0000
 30
0.0000
 40
0.1524
 41
0.1524
 70
0
  0
VERTEX
  8
21
 10
86.3600
 20
52.0700
 30
0.0000
  0
VERTEX
  8
21
 10
86.3600
 20
62.2300
 30
0.0000
  0
SEQEND
  8
0
  0
POLYLINE
  8
21
 66
1
 10
0.0000
 20
0.0000
 30
0.0000
 40
0.0762
 41
0.0762
 70
0
  0
VERTEX
  8
21
 10
86.3981
 20
62.2300
 30
0.0000
 42
1.0000
  0
VERTEX
  8
21
 10
86.3219
 20
62.2300
 30
0.0000
  0
SEQEND
  8
0
  0
POLYLINE
  8
21
 66
1
 10
0.0000
 20
0.0000
 30
0.0000
 40
0.0762
 41
0.0762
 70
0
  0
VERTEX
  8
21
 10
86.3219
 20
52.0700
 30
0.0000
 42
1.0000
  0
VERTEX
  8
21
 10
86.3981
 20
52.0700
 30
0.0000
  0
SEQEND
  8
0
  0
POLYLINE
  8
21
 66
1
 10
0.0000
 20
0.0000
 30
0.0000
 40
0.1524
 41
0.1524
 70
0
  0
VERTEX
  8
21
 10
86.3600
 20
62.2300
 30
0.0000
  0
VERTEX
  8
21
 10
68.5800
 20
62.2300
 30
0.0000
  0
SEQEND
  8
0
  0
POLYLINE
  8
21
 66
1
 10
0.0000
 20
0.0000
 30
0.0000
 40
0.0762
 41
0.0762
 70
0
  0
VERTEX
  8
21
 10
68.5800
 20
62.2681
 30
0.0000
 42
1.0000
  0
VERTEX
  8
21
 10
68.5800
 20
62.1919
 30
0.0000
  0
SEQEND
  8
0
  0
POLYLINE
  8
21
 66
1
 10
0.0000
 20
0.0000
 30
0.0000
 40
0.0762
 41
0.0762
 70
0
  0
VERTEX
  8
21
 10
86.3600
 20
62.1919
 30
0.0000
 42
1.0000
  0
VERTEX
  8
21
 10
86.3600
 20
62.2681
 30
0.0000
  0
SEQEND
  8
0
  0
POLYLINE
  8
21
 66
1
 10
0.0000
 20
0.0000
 30
0.0000
 40
0.1524
 41
0.1524
 70
0
  0
VERTEX
  8
21
 10
68.5800
 20
52.0700
 30
0.0000
  0
VERTEX
  8
21
 10
68.5800
 20
62.2300
 30
0.0000
  0
SEQEND
  8
0
  0
POLYLINE
  8
21
 66
1
 10
0.0000
 20
0.0000
 30
0.0000
 40
0.0762
 41
0.0762
 70
0
  0
VERTEX
  8
21
 10
68.6181
 20
62.2300
 30
0.0000
 42
1.0000
  0
VERTEX
  8
21
 10
68.5419
 20
62.2300
 30
0.0000
  0
SEQEND
  8
0
  0
POLYLINE
  8
21
 66
1
 10
0.0000
 20
0.0000
 30
0.0000
 40
0.0762
 41
0.0762
 70
0
  0
VERTEX
  8
21
 10
68.5419
 20
52.0700
 30
0.0000
 42
1.0000
  0
VERTEX
  8
21
 10
68.6181
 20
52.0700
 30
0.0000
  0
SEQEND
  8
0
  0
POLYLINE
  8
21
 66
1
 10
0.0000
 20
0.0000
 30
0.0000
 40
0.1524
 41
0.1524
 70
0
  0
VERTEX
  8
21
 10
86.3600
 20
52.0700
 30
0.0000
  0
VERTEX
  8
21
 10
68.5800
 20
52.0700
 30
0.0000
  0
SEQEND
  8
0
  0
POLYLINE
  8
21
 66
1
 10
0.0000
 20
0.0000
 30
0.0000
 40
0.0762
 41
0.0762
 70
0
  0
VERTEX
  8
21
 10
68.5800
 20
52.1081
 30
0.0000
 42
1.0000
  0
VERTEX
  8
21
 10
68.5800
 20
52.0319
 30
0.0000
  0
SEQEND
  8
0
  0
POLYLINE
  8
21
 66
1
 10
0.0000
 20
0.0000
 30
0.0000
 40
0.0762
 41
0.0762
 70
0
  0
VERTEX
  8
21
 10
86.3600
 20
52.0319
 30
0.0000
 42
1.0000
  0
VERTEX
  8
21
 10
86.3600
 20
52.1081
 30
0.0000
  0
SEQEND
  8
0
  0
POLYLINE
  8
21
 66
1
 10
0.0000
 20
0.0000
 30
0.0000
 40
0.1524
 41
0.1524
 70
0
  0
VERTEX
  8
21
 10
80.3966
 20
59.6138
 30
0.0000
  0
VERTEX
  8
21
 10
80.3966
 20
57.9882
 30
0.0000
  0
SEQEND
  8
0
  0
POLYLINE
  8
21
 66
1
 10
0.0000
 20
0.0000
 30
0.0000
 40
0.0762
 41
0.0762
 70
0
  0
VERTEX
  8
21
 10
80.3585
 20
57.9882
 30
0.0000
 42
1.0000
  0
VERTEX
  8
21
 10
80.4347
 20
57.9882
 30
0.0000
  0
SEQEND
  8
0
  0
POLYLINE
  8
21
 66
1
 10
0.0000
 20
0.0000
 30
0.0000
 40
0.0762
 41
0.0762
 70
0
  0
VERTEX
  8
21
 10
80.4347
 20
59.6138
 30
0.0000
 42
1.0000
  0
VERTEX
  8
21
 10
80.3585
 20
59.6138
 30
0.0000
  0
SEQEND
  8
0
  0
POLYLINE
  8
21
 66
1
 10
0.0000
 20
0.0000
 30
0.0000
 40
0.1524
 41
0.1524
 70
0
  0
VERTEX
  8
21
 10
80.3966
 20
57.9882
 30
0.0000
  0
VERTEX
  8
21
 10
81.1191
 20
57.9882
 30
0.0000
  0
SEQEND
  8
0
  0
POLYLINE
  8
21
 66
1
 10
0.0000
 20
0.0000
 30
0.0000
 40
0.0762
 41
0.0762
 70
0
  0
VERTEX
  8
21
 10
81.1191
 20
57.9501
 30
0.0000
 42
1.0000
  0
VERTEX
  8
21
 10
81.1191
 20
58.0263
 30
0.0000
  0
SEQEND
  8
0
  0
POLYLINE
  8
21
 66
1
 10
0.0000
 20
0.0000
 30
0.0000
 40
0.0762
 41
0.0762
 70
0
  0
VERTEX
  8
21
 10
80.3966
 20
58.0263
 30
0.0000
 42
1.0000
  0
VERTEX
  8
21
 10
80.3966
 20
57.9501
 30
0.0000
  0
SEQEND
  8
0
  0
POLYLINE
  8
21
 66
1
 10
0.0000
 20
0.0000
 30
0.0000
 40
0.1524
 41
0.1524
 70
0
  0
VERTEX
  8
21
 10
82.4738
 20
57.9882
 30
0.0000
  0
VERTEX
  8
21
 10
81.7513
 20
57.9882
 30
0.0000
  0
SEQEND
  8
0
  0
POLYLINE
  8
21
 66
1
 10
0.0000
 20
0.0000
 30
0.0000
 40
0.0762
 41
0.0762
 70
0
  0
VERTEX
  8
21
 10
81.7513
 20
58.0263
 30
0.0000
 42
1.0000
  0
VERTEX
  8
21
 10
81.7513
 20
57.9501
 30
0.0000
  0
SEQEND
  8
0
  0
POLYLINE
  8
21
 66
1
 10
0.0000
 20
0.0000
 30
0.0000
 40
0.0762
 41
0.0762
 70
0
  0
VERTEX
  8
21
 10
82.4738
 20
57.9501
 30
0.0000
 42
1.0000
  0
VERTEX
  8
21
 10
82.4738
 20
58.0263
 30
0.0000
  0
SEQEND
  8
0
  0
POLYLINE
  8
21
 66
1
 10
0.0000
 20
0.0000
 30
0.0000
 40
0.1524
 41
0.1524
 70
0
  0
VERTEX
  8
21
 10
81.7513
 20
57.9882
 30
0.0000
  0
VERTEX
  8
21
 10
81.7513
 20
59.6138
 30
0.0000
  0
SEQEND
  8
0
  0
POLYLINE
  8
21
 66
1
 10
0.0000
 20
0.0000
 30
0.0000
 40
0.0762
 41
0.0762
 70
0
  0
VERTEX
  8
21
 10
81.7894
 20
59.6138
 30
0.0000
 42
1.0000
  0
VERTEX
  8
21
 10
81.7132
 20
59.6138
 30
0.0000
  0
SEQEND
  8
0
  0
POLYLINE
  8
21
 66
1
 10
0.0000
 20
0.0000
 30
0.0000
 40
0.0762
 41
0.0762
 70
0
  0
VERTEX
  8
21
 10
81.7132
 20
57.9882
 30
0.0000
 42
1.0000
  0
VERTEX
  8
21
 10
81.7894
 20
57.9882
 30
0.0000
  0
SEQEND
  8
0
  0
POLYLINE
  8
21
 66
1
 10
0.0000
 20
0.0000
 30
0.0000
 40
0.1524
 41
0.1524
 70
0
  0
VERTEX
  8
21
 10
81.7513
 20
59.6138
 30
0.0000
  0
VERTEX
  8
21
 10
82.4738
 20
59.6138
 30
0.0000
  0
SEQEND
  8
0
  0
POLYLINE
  8
21
 66
1
 10
0.0000
 20
0.0000
 30
0.0000
 40
0.0762
 41
0.0762
 70
0
  0
VERTEX
  8
21
 10
82.4738
 20
59.5757
 30
0.0000
 42
1.0000
  0
VERTEX
  8
21
 10
82.4738
 20
59.6519
 30
0.0000
  0
SEQEND
  8
0
  0
POLYLINE
  8
21
 66
1
 10
0.0000
 20
0.0000
 30
0.0000
 40
0.0762
 41
0.0762
 70
0
  0
VERTEX
  8
21
 10
81.7513
 20
59.6519
 30
0.0000
 42
1.0000
  0
VERTEX
  8
21
 10
81.7513
 20
59.5757
 30
0.0000
  0
SEQEND
  8
0
  0
POLYLINE
  8
21
 66
1
 10
0.0000
 20
0.0000
 30
0.0000
 40
0.1524
 41
0.1524
 70
0
  0
VERTEX
  8
21
 10
81.7513
 20
58.8913
 30
0.0000
  0
VERTEX
  8
21
 10
82.2932
 20
58.8913
 30
0.0000
  0
SEQEND
  8
0
  0
POLYLINE
  8
21
 66
1
 10
0.0000
 20
0.0000
 30
0.0000
 40
0.0762
 41
0.0762
 70
0
  0
VERTEX
  8
21
 10
82.2932
 20
58.8532
 30
0.0000
 42
1.0000
  0
VERTEX
  8
21
 10
82.2932
 20
58.9294
 30
0.0000
  0
SEQEND
  8
0
  0
POLYLINE
  8
21
 66
1
 10
0.0000
 20
0.0000
 30
0.0000
 40
0.0762
 41
0.0762
 70
0
  0
VERTEX
  8
21
 10
81.7513
 20
58.9294
 30
0.0000
 42
1.0000
  0
VERTEX
  8
21
 10
81.7513
 20
58.8532
 30
0.0000
  0
SEQEND
  8
0
  0
INSERT
  8
17
  2
SQUAREP
 10
83.8200
 20
54.6100
 30
0.0000
 41
1.9500
 42
1.9500
 43
1.0000
 50
90.0000
  0
INSERT
  8
17
  2
SQUAREP
 10
83.8200
 20
54.6100
 30
0.0000
 41
1.9500
 42
1.9500
 43
1.0000
 50
90.0000
  0
INSERT
  8
17
  2
SQUAREP
 10
80.0100
 20
54.6100
 30
0.0000
 41
1.9500
 42
1.9500
 43
1.0000
 50
90.0000
  0
INSERT
  8
17
  2
SQUAREP
 10
80.0100
 20
54.6100
 30
0.0000
 41
1.9500
 42
1.9500
 43
1.0000
 50
90.0000
  0
INSERT
  8
17
  2
SQUAREP
 10
72.3900
 20
54.6100
 30
0.0000
 41
1.9500
 42
1.9500
 43
1.0000
 50
90.0000
  0
INSERT
  8
17
  2
SQUAREP
 10
72.3900
 20
54.6100
 30
0.0000
 41
1.9500
 42
1.9500
 43
1.0000
 50
90.0000
  0
POINT
  8
23
 10
48.2600
 20
29.2100
 30
0.0000
  0
POLYLINE
  8
21
 66
1
 10
0.0000
 20
0.0000
 30
0.0000
 40
0.1524
 41
0.1524
 70
0
  0
VERTEX
  8
21
 10
50.8000
 20
27.9400
 30
0.0000
  0
VERTEX
  8
21
 10
50.8000
 20
30.4800
 30
0.0000
  0
SEQEND
  8
0
  0
POLYLINE
  8
21
 66
1
 10
0.0000
 20
0.0000
 30
0.0000
 40
0.0762
 41
0.0762
 70
0
  0
VERTEX
  8
21
 10
50.8381
 20
30.4800
 30
0.0000
 42
1.0000
  0
VERTEX
  8
21
 10
50.7619
 20
30.4800
 30
0.0000
  0
SEQEND
  8
0
  0
POLYLINE
  8
21
 66
1
 10
0.0000
 20
0.0000
 30
0.0000
 40
0.0762
 41
0.0762
 70
0
  0
VERTEX
  8
21
 10
50.7619
 20
27.9400
 30
0.0000
 42
1.0000
  0
VERTEX
  8
21
 10
50.8381
 20
27.9400
 30
0.0000
  0
SEQEND
  8
0
  0
POLYLINE
  8
21
 66
1
 10
0.0000
 20
0.0000
 30
0.0000
 40
0.1524
 41
0.1524
 70
0
  0
VERTEX
  8
21
 10
50.8000
 20
30.4800
 30
0.0000
  0
VERTEX
  8
21
 10
34.2900
 20
30.4800
 30
0.0000
  0
SEQEND
  8
0
  0
POLYLINE
  8
21
 66
1
 10
0.0000
 20
0.0000
 30
0.0000
 40
0.0762
 41
0.0762
 70
0
  0
VERTEX
  8
21
 10
34.2900
 20
30.5181
 30
0.0000
 42
1.0000
  0
VERTEX
  8
21
 10
34.2900
 20
30.4419
 30
0.0000
  0
SEQEND
  8
0
  0
POLYLINE
  8
21
 66
1
 10
0.0000
 20
0.0000
 30
0.0000
 40
0.0762
 41
0.0762
 70
0
  0
VERTEX
  8
21
 10
50.8000
 20
30.4419
 30
0.0000
 42
1.0000
  0
VERTEX
  8
21
 10
50.8000
 20
30.5181
 30
0.0000
  0
SEQEND
  8
0
  0
POLYLINE
  8
21
 66
1
 10
0.0000
 20
0.0000
 30
0.0000
 40
0.1524
 41
0.1524
 70
0
  0
VERTEX
  8
21
 10
34.2900
 20
27.9400
 30
0.0000
  0
VERTEX
  8
21
 10
50.8000
 20
27.9400
 30
0.0000
  0
SEQEND
  8
0
  0
POLYLINE
  8
21
 66
1
 10
0.0000
 20
0.0000
 30
0.0000
 40
0.0762
 41
0.0762
 70
0
  0
VERTEX
  8
21
 10
50.8000
 20
27.9019
 30
0.0000
 42
1.0000
  0
VERTEX
  8
21
 10
50.8000
 20
27.9781
 30
0.0000
  0
SEQEND
  8
0
  0
POLYLINE
  8
21
 66
1
 10
0.0000
 20
0.0000
 30
0.0000
 40
0.0762
 41
0.0762
 70
0
  0
VERTEX
  8
21
 10
34.2900
 20
27.9781
 30
0.0000
 42
1.0000
  0
VERTEX
  8
21
 10
34.2900
 20
27.9019
 30
0.0000
  0
SEQEND
  8
0
  0
POLYLINE
  8
21
 66
1
 10
0.0000
 20
0.0000
 30
0.0000
 40
0.1524
 41
0.1524
 70
0
  0
VERTEX
  8
21
 10
52.0700
 20
26.6700
 30
0.0000
  0
VERTEX
  8
21
 10
52.0700
 20
36.8300
 30
0.0000
  0
SEQEND
  8
0
  0
POLYLINE
  8
21
 66
1
 10
0.0000
 20
0.0000
 30
0.0000
 40
0.0762
 41
0.0762
 70
0
  0
VERTEX
  8
21
 10
52.1081
 20
36.8300
 30
0.0000
 42
1.0000
  0
VERTEX
  8
21
 10
52.0319
 20
36.8300
 30
0.0000
  0
SEQEND
  8
0
  0
POLYLINE
  8
21
 66
1
 10
0.0000
 20
0.0000
 30
0.0000
 40
0.0762
 41
0.0762
 70
0
  0
VERTEX
  8
21
 10
52.0319
 20
26.6700
 30
0.0000
 42
1.0000
  0
VERTEX
  8
21
 10
52.1081
 20
26.6700
 30
0.0000
  0
SEQEND
  8
0
  0
POLYLINE
  8
21
 66
1
 10
0.0000
 20
0.0000
 30
0.0000
 40
0.1524
 41
0.1524
 70
0
  0
VERTEX
  8
21
 10
52.0700
 20
36.8300
 30
0.0000
  0
VERTEX
  8
21
 10
33.0200
 20
36.8300
 30
0.0000
  0
SEQEND
  8
0
  0
POLYLINE
  8
21
 66
1
 10
0.0000
 20
0.0000
 30
0.0000
 40
0.0762
 41
0.0762
 70
0
  0
VERTEX
  8
21
 10
33.0200
 20
36.8681
 30
0.0000
 42
1.0000
  0
VERTEX
  8
21
 10
33.0200
 20
36.7919
 30
0.0000
  0
SEQEND
  8
0
  0
POLYLINE
  8
21
 66
1
 10
0.0000
 20
0.0000
 30
0.0000
 40
0.0762
 41
0.0762
 70
0
  0
VERTEX
  8
21
 10
52.0700
 20
36.7919
 30
0.0000
 42
1.0000
  0
VERTEX
  8
21
 10
52.0700
 20
36.8681
 30
0.0000
  0
SEQEND
  8
0
  0
POLYLINE
  8
21
 66
1
 10
0.0000
 20
0.0000
 30
0.0000
 40
0.1524
 41
0.1524
 70
0
  0
VERTEX
  8
21
 10
33.0200
 20
26.6700
 30
0.0000
  0
VERTEX
  8
21
 10
52.0700
 20
26.6700
 30
0.0000
  0
SEQEND
  8
0
  0
POLYLINE
  8
21
 66
1
 10
0.0000
 20
0.0000
 30
0.0000
 40
0.0762
 41
0.0762
 70
0
  0
VERTEX
  8
21
 10
52.0700
 20
26.6319
 30
0.0000
 42
1.0000
  0
VERTEX
  8
21
 10
52.0700
 20
26.7081
 30
0.0000
  0
SEQEND
  8
0
  0
POLYLINE
  8
21
 66
1
 10
0.0000
 20
0.0000
 30
0.0000
 40
0.0762
 41
0.0762
 70
0
  0
VERTEX
  8
21
 10
33.0200
 20
26.7081
 30
0.0000
 42
1.0000
  0
VERTEX
  8
21
 10
33.0200
 20
26.6319
 30
0.0000
  0
SEQEND
  8
0
  0
POLYLINE
  8
21
 66
1
 10
0.0000
 20
0.0000
 30
0.0000
 40
0.1524
 41
0.1524
 70
0
  0
VERTEX
  8
21
 10
34.2900
 20
27.9400
 30
0.0000
  0
VERTEX
  8
21
 10
34.2900
 20
30.4800
 30
0.0000
  0
SEQEND
  8
0
  0
POLYLINE
  8
21
 66
1
 10
0.0000
 20
0.0000
 30
0.0000
 40
0.0762
 41
0.0762
 70
0
  0
VERTEX
  8
21
 10
34.3281
 20
30.4800
 30
0.0000
 42
1.0000
  0
VERTEX
  8
21
 10
34.2519
 20
30.4800
 30
0.0000
  0
SEQEND
  8
0
  0
POLYLINE
  8
21
 66
1
 10
0.0000
 20
0.0000
 30
0.0000
 40
0.0762
 41
0.0762
 70
0
  0
VERTEX
  8
21
 10
34.2519
 20
27.9400
 30
0.0000
 42
1.0000
  0
VERTEX
  8
21
 10
34.3281
 20
27.9400
 30
0.0000
  0
SEQEND
  8
0
  0
POLYLINE
  8
21
 66
1
 10
0.0000
 20
0.0000
 30
0.0000
 40
0.1524
 41
0.1524
 70
0
  0
VERTEX
  8
21
 10
33.0200
 20
26.6700
 30
0.0000
  0
VERTEX
  8
21
 10
33.0200
 20
36.8300
 30
0.0000
  0
SEQEND
  8
0
  0
POLYLINE
  8
21
 66
1
 10
0.0000
 20
0.0000
 30
0.0000
 40
0.0762
 41
0.0762
 70
0
  0
VERTEX
  8
21
 10
33.0581
 20
36.8300
 30
0.0000
 42
1.0000
  0
VERTEX
  8
21
 10
32.9819
 20
36.8300
 30
0.0000
  0
SEQEND
  8
0
  0
POLYLINE
  8
21
 66
1
 10
0.0000
 20
0.0000
 30
0.0000
 40
0.0762
 41
0.0762
 70
0
  0
VERTEX
  8
21
 10
32.9819
 20
26.6700
 30
0.0000
 42
1.0000
  0
VERTEX
  8
21
 10
33.0581
 20
26.6700
 30
0.0000
  0
SEQEND
  8
0
  0
POLYLINE
  8
21
 66
1
 10
0.0000
 20
0.0000
 30
0.0000
 40
0.1524
 41
0.1524
 70
0
  0
VERTEX
  8
21
 10
45.7344
 20
32.9438
 30
0.0000
  0
VERTEX
  8
21
 10
45.7344
 20
31.3182
 30
0.0000
  0
SEQEND
  8
0
  0
POLYLINE
  8
21
 66
1
 10
0.0000
 20
0.0000
 30
0.0000
 40
0.0762
 41
0.0762
 70
0
  0
VERTEX
  8
21
 10
45.6963
 20
31.3182
 30
0.0000
 42
1.0000
  0
VERTEX
  8
21
 10
45.7725
 20
31.3182
 30
0.0000
  0
SEQEND
  8
0
  0
POLYLINE
  8
21
 66
1
 10
0.0000
 20
0.0000
 30
0.0000
 40
0.0762
 41
0.0762
 70
0
  0
VERTEX
  8
21
 10
45.7725
 20
32.9438
 30
0.0000
 42
1.0000
  0
VERTEX
  8
21
 10
45.6963
 20
32.9438
 30
0.0000
  0
SEQEND
  8
0
  0
POLYLINE
  8
21
 66
1
 10
0.0000
 20
0.0000
 30
0.0000
 40
0.1524
 41
0.1524
 70
0
  0
VERTEX
  8
21
 10
45.7344
 20
31.3182
 30
0.0000
  0
VERTEX
  8
21
 10
46.4569
 20
31.3182
 30
0.0000
  0
SEQEND
  8
0
  0
POLYLINE
  8
21
 66
1
 10
0.0000
 20
0.0000
 30
0.0000
 40
0.0762
 41
0.0762
 70
0
  0
VERTEX
  8
21
 10
46.4569
 20
31.2801
 30
0.0000
 42
1.0000
  0
VERTEX
  8
21
 10
46.4569
 20
31.3563
 30
0.0000
  0
SEQEND
  8
0
  0
POLYLINE
  8
21
 66
1
 10
0.0000
 20
0.0000
 30
0.0000
 40
0.0762
 41
0.0762
 70
0
  0
VERTEX
  8
21
 10
45.7344
 20
31.3563
 30
0.0000
 42
1.0000
  0
VERTEX
  8
21
 10
45.7344
 20
31.2801
 30
0.0000
  0
SEQEND
  8
0
  0
POLYLINE
  8
21
 66
1
 10
0.0000
 20
0.0000
 30
0.0000
 40
0.1524
 41
0.1524
 70
0
  0
VERTEX
  8
21
 10
47.1001
 20
31.3182
 30
0.0000
  0
VERTEX
  8
21
 10
47.1001
 20
32.9438
 30
0.0000
  0
SEQEND
  8
0
  0
POLYLINE
  8
21
 66
1
 10
0.0000
 20
0.0000
 30
0.0000
 40
0.0762
 41
0.0762
 70
0
  0
VERTEX
  8
21
 10
47.1382
 20
32.9438
 30
0.0000
 42
1.0000
  0
VERTEX
  8
21
 10
47.0620
 20
32.9438
 30
0.0000
  0
SEQEND
  8
0
  0
POLYLINE
  8
21
 66
1
 10
0.0000
 20
0.0000
 30
0.0000
 40
0.0762
 41
0.0762
 70
0
  0
VERTEX
  8
21
 10
47.0620
 20
31.3182
 30
0.0000
 42
1.0000
  0
VERTEX
  8
21
 10
47.1382
 20
31.3182
 30
0.0000
  0
SEQEND
  8
0
  0
POLYLINE
  8
21
 66
1
 10
0.0000
 20
0.0000
 30
0.0000
 40
0.1524
 41
0.1524
 70
0
  0
VERTEX
  8
21
 10
47.1001
 20
32.9438
 30
0.0000
  0
VERTEX
  8
21
 10
47.6419
 20
32.0407
 30
0.0000
  0
SEQEND
  8
0
  0
POLYLINE
  8
21
 66
1
 10
0.0000
 20
0.0000
 30
0.0000
 40
0.0762
 41
0.0762
 70
0
  0
VERTEX
  8
21
 10
47.6093
 20
32.0211
 30
0.0000
 42
1.0000
  0
VERTEX
  8
21
 10
47.6746
 20
32.0603
 30
0.0000
  0
SEQEND
  8
0
  0
POLYLINE
  8
21
 66
1
 10
0.0000
 20
0.0000
 30
0.0000
 40
0.0762
 41
0.0762
 70
0
  0
VERTEX
  8
21
 10
47.1327
 20
32.9634
 30
0.0000
 42
1.0000
  0
VERTEX
  8
21
 10
47.0674
 20
32.9242
 30
0.0000
  0
SEQEND
  8
0
  0
POLYLINE
  8
21
 66
1
 10
0.0000
 20
0.0000
 30
0.0000
 40
0.1524
 41
0.1524
 70
0
  0
VERTEX
  8
21
 10
47.6419
 20
32.0407
 30
0.0000
  0
VERTEX
  8
21
 10
48.1838
 20
32.9438
 30
0.0000
  0
SEQEND
  8
0
  0
POLYLINE
  8
21
 66
1
 10
0.0000
 20
0.0000
 30
0.0000
 40
0.0762
 41
0.0762
 70
0
  0
VERTEX
  8
21
 10
48.2165
 20
32.9242
 30
0.0000
 42
1.0000
  0
VERTEX
  8
21
 10
48.1511
 20
32.9634
 30
0.0000
  0
SEQEND
  8
0
  0
POLYLINE
  8
21
 66
1
 10
0.0000
 20
0.0000
 30
0.0000
 40
0.0762
 41
0.0762
 70
0
  0
VERTEX
  8
21
 10
47.6093
 20
32.0603
 30
0.0000
 42
1.0000
  0
VERTEX
  8
21
 10
47.6746
 20
32.0211
 30
0.0000
  0
SEQEND
  8
0
  0
POLYLINE
  8
21
 66
1
 10
0.0000
 20
0.0000
 30
0.0000
 40
0.1524
 41
0.1524
 70
0
  0
VERTEX
  8
21
 10
48.1838
 20
32.9438
 30
0.0000
  0
VERTEX
  8
21
 10
48.1838
 20
31.3182
 30
0.0000
  0
SEQEND
  8
0
  0
POLYLINE
  8
21
 66
1
 10
0.0000
 20
0.0000
 30
0.0000
 40
0.0762
 41
0.0762
 70
0
  0
VERTEX
  8
21
 10
48.1457
 20
31.3182
 30
0.0000
 42
1.0000
  0
VERTEX
  8
21
 10
48.2219
 20
31.3182
 30
0.0000
  0
SEQEND
  8
0
  0
POLYLINE
  8
21
 66
1
 10
0.0000
 20
0.0000
 30
0.0000
 40
0.0762
 41
0.0762
 70
0
  0
VERTEX
  8
21
 10
48.2219
 20
32.9438
 30
0.0000
 42
1.0000
  0
VERTEX
  8
21
 10
48.1457
 20
32.9438
 30
0.0000
  0
SEQEND
  8
0
  0
INSERT
  8
17
  2
SQUAREP
 10
48.2600
 20
29.2100
 30
0.0000
 41
1.9500
 42
1.9500
 43
1.0000
 50
90.0000
  0
INSERT
  8
17
  2
SQUAREP
 10
48.2600
 20
29.2100
 30
0.0000
 41
1.9500
 42
1.9500
 43
1.0000
 50
90.0000
  0
INSERT
  8
17
  2
SQUAREP
 10
44.4500
 20
29.2100
 30
0.0000
 41
1.9500
 42
1.9500
 43
1.0000
 50
90.0000
  0
INSERT
  8
17
  2
SQUAREP
 10
44.4500
 20
29.2100
 30
0.0000
 41
1.9500
 42
1.9500
 43
1.0000
 50
90.0000
  0
INSERT
  8
17
  2
SQUAREP
 10
40.6400
 20
29.2100
 30
0.0000
 41
1.9500
 42
1.9500
 43
1.0000
 50
90.0000
  0
INSERT
  8
17
  2
SQUAREP
 10
40.6400
 20
29.2100
 30
0.0000
 41
1.9500
 42
1.9500
 43
1.0000
 50
90.0000
  0
POINT
  8
23
 10
60.9600
 20
66.0400
 30
0.0000
  0
POLYLINE
  8
21
 66
1
 10
0.0000
 20
0.0000
 30
0.0000
 40
0.1524
 41
0.1524
 70
0
  0
VERTEX
  8
21
 10
62.2300
 20
52.0700
 30
0.0000
  0
VERTEX
  8
21
 10
59.6900
 20
52.0700
 30
0.0000
  0
SEQEND
  8
0
  0
POLYLINE
  8
21
 66
1
 10
0.0000
 20
0.0000
 30
0.0000
 40
0.0762
 41
0.0762
 70
0
  0
VERTEX
  8
21
 10
59.6900
 20
52.1081
 30
0.0000
 42
1.0000
  0
VERTEX
  8
21
 10
59.6900
 20
52.0319
 30
0.0000
  0
SEQEND
  8
0
  0
POLYLINE
  8
21
 66
1
 10
0.0000
 20
0.0000
 30
0.0000
 40
0.0762
 41
0.0762
 70
0
  0
VERTEX
  8
21
 10
62.2300
 20
52.0319
 30
0.0000
 42
1.0000
  0
VERTEX
  8
21
 10
62.2300
 20
52.1081
 30
0.0000
  0
SEQEND
  8
0
  0
POLYLINE
  8
21
 66
1
 10
0.0000
 20
0.0000
 30
0.0000
 40
0.1524
 41
0.1524
 70
0
  0
VERTEX
  8
21
 10
59.6900
 20
52.0700
 30
0.0000
  0
VERTEX
  8
21
 10
59.6900
 20
67.3100
 30
0.0000
  0
SEQEND
  8
0
  0
POLYLINE
  8
21
 66
1
 10
0.0000
 20
0.0000
 30
0.0000
 40
0.0762
 41
0.0762
 70
0
  0
VERTEX
  8
21
 10
59.7281
 20
67.3100
 30
0.0000
 42
1.0000
  0
VERTEX
  8
21
 10
59.6519
 20
67.3100
 30
0.0000
  0
SEQEND
  8
0
  0
POLYLINE
  8
21
 66
1
 10
0.0000
 20
0.0000
 30
0.0000
 40
0.0762
 41
0.0762
 70
0
  0
VERTEX
  8
21
 10
59.6519
 20
52.0700
 30
0.0000
 42
1.0000
  0
VERTEX
  8
21
 10
59.7281
 20
52.0700
 30
0.0000
  0
SEQEND
  8
0
  0
POLYLINE
  8
21
 66
1
 10
0.0000
 20
0.0000
 30
0.0000
 40
0.1524
 41
0.1524
 70
0
  0
VERTEX
  8
21
 10
59.6900
 20
67.3100
 30
0.0000
  0
VERTEX
  8
21
 10
62.2300
 20
67.3100
 30
0.0000
  0
SEQEND
  8
0
  0
POLYLINE
  8
21
 66
1
 10
0.0000
 20
0.0000
 30
0.0000
 40
0.0762
 41
0.0762
 70
0
  0
VERTEX
  8
21
 10
62.2300
 20
67.2719
 30
0.0000
 42
1.0000
  0
VERTEX
  8
21
 10
62.2300
 20
67.3481
 30
0.0000
  0
SEQEND
  8
0
  0
POLYLINE
  8
21
 66
1
 10
0.0000
 20
0.0000
 30
0.0000
 40
0.0762
 41
0.0762
 70
0
  0
VERTEX
  8
21
 10
59.6900
 20
67.3481
 30
0.0000
 42
1.0000
  0
VERTEX
  8
21
 10
59.6900
 20
67.2719
 30
0.0000
  0
SEQEND
  8
0
  0
POLYLINE
  8
21
 66
1
 10
0.0000
 20
0.0000
 30
0.0000
 40
0.1524
 41
0.1524
 70
0
  0
VERTEX
  8
21
 10
62.2300
 20
67.3100
 30
0.0000
  0
VERTEX
  8
21
 10
62.2300
 20
52.0700
 30
0.0000
  0
SEQEND
  8
0
  0
POLYLINE
  8
21
 66
1
 10
0.0000
 20
0.0000
 30
0.0000
 40
0.0762
 41
0.0762
 70
0
  0
VERTEX
  8
21
 10
62.1919
 20
52.0700
 30
0.0000
 42
1.0000
  0
VERTEX
  8
21
 10
62.2681
 20
52.0700
 30
0.0000
  0
SEQEND
  8
0
  0
POLYLINE
  8
21
 66
1
 10
0.0000
 20
0.0000
 30
0.0000
 40
0.0762
 41
0.0762
 70
0
  0
VERTEX
  8
21
 10
62.2681
 20
67.3100
 30
0.0000
 42
1.0000
  0
VERTEX
  8
21
 10
62.1919
 20
67.3100
 30
0.0000
  0
SEQEND
  8
0
  0
POLYLINE
  8
21
 66
1
 10
0.0000
 20
0.0000
 30
0.0000
 40
0.1524
 41
0.1524
 70
0
  0
VERTEX
  8
21
 10
63.5000
 20
68.5800
 30
0.0000
  0
VERTEX
  8
21
 10
53.3400
 20
68.5800
 30
0.0000
  0
SEQEND
  8
0
  0
POLYLINE
  8
21
 66
1
 10
0.0000
 20
0.0000
 30
0.0000
 40
0.0762
 41
0.0762
 70
0
  0
VERTEX
  8
21
 10
53.3400
 20
68.6181
 30
0.0000
 42
1.0000
  0
VERTEX
  8
21
 10
53.3400
 20
68.5419
 30
0.0000
  0
SEQEND
  8
0
  0
POLYLINE
  8
21
 66
1
 10
0.0000
 20
0.0000
 30
0.0000
 40
0.0762
 41
0.0762
 70
0
  0
VERTEX
  8
21
 10
63.5000
 20
68.5419
 30
0.0000
 42
1.0000
  0
VERTEX
  8
21
 10
63.5000
 20
68.6181
 30
0.0000
  0
SEQEND
  8
0
  0
POLYLINE
  8
21
 66
1
 10
0.0000
 20
0.0000
 30
0.0000
 40
0.1524
 41
0.1524
 70
0
  0
VERTEX
  8
21
 10
53.3400
 20
68.5800
 30
0.0000
  0
VERTEX
  8
21
 10
53.3400
 20
50.8000
 30
0.0000
  0
SEQEND
  8
0
  0
POLYLINE
  8
21
 66
1
 10
0.0000
 20
0.0000
 30
0.0000
 40
0.0762
 41
0.0762
 70
0
  0
VERTEX
  8
21
 10
53.3019
 20
50.8000
 30
0.0000
 42
1.0000
  0
VERTEX
  8
21
 10
53.3781
 20
50.8000
 30
0.0000
  0
SEQEND
  8
0
  0
POLYLINE
  8
21
 66
1
 10
0.0000
 20
0.0000
 30
0.0000
 40
0.0762
 41
0.0762
 70
0
  0
VERTEX
  8
21
 10
53.3781
 20
68.5800
 30
0.0000
 42
1.0000
  0
VERTEX
  8
21
 10
53.3019
 20
68.5800
 30
0.0000
  0
SEQEND
  8
0
  0
POLYLINE
  8
21
 66
1
 10
0.0000
 20
0.0000
 30
0.0000
 40
0.1524
 41
0.1524
 70
0
  0
VERTEX
  8
21
 10
63.5000
 20
50.8000
 30
0.0000
  0
VERTEX
  8
21
 10
53.3400
 20
50.8000
 30
0.0000
  0
SEQEND
  8
0
  0
POLYLINE
  8
21
 66
1
 10
0.0000
 20
0.0000
 30
0.0000
 40
0.0762
 41
0.0762
 70
0
  0
VERTEX
  8
21
 10
53.3400
 20
50.8381
 30
0.0000
 42
1.0000
  0
VERTEX
  8
21
 10
53.3400
 20
50.7619
 30
0.0000
  0
SEQEND
  8
0
  0
POLYLINE
  8
21
 66
1
 10
0.0000
 20
0.0000
 30
0.0000
 40
0.0762
 41
0.0762
 70
0
  0
VERTEX
  8
21
 10
63.5000
 20
50.7619
 30
0.0000
 42
1.0000
  0
VERTEX
  8
21
 10
63.5000
 20
50.8381
 30
0.0000
  0
SEQEND
  8
0
  0
POLYLINE
  8
21
 66
1
 10
0.0000
 20
0.0000
 30
0.0000
 40
0.1524
 41
0.1524
 70
0
  0
VERTEX
  8
21
 10
63.5000
 20
68.5800
 30
0.0000
  0
VERTEX
  8
21
 10
63.5000
 20
50.8000
 30
0.0000
  0
SEQEND
  8
0
  0
POLYLINE
  8
21
 66
1
 10
0.0000
 20
0.0000
 30
0.0000
 40
0.0762
 41
0.0762
 70
0
  0
VERTEX
  8
21
 10
63.4619
 20
50.8000
 30
0.0000
 42
1.0000
  0
VERTEX
  8
21
 10
63.5381
 20
50.8000
 30
0.0000
  0
SEQEND
  8
0
  0
POLYLINE
  8
21
 66
1
 10
0.0000
 20
0.0000
 30
0.0000
 40
0.0762
 41
0.0762
 70
0
  0
VERTEX
  8
21
 10
63.5381
 20
68.5800
 30
0.0000
 42
1.0000
  0
VERTEX
  8
21
 10
63.4619
 20
68.5800
 30
0.0000
  0
SEQEND
  8
0
  0
POLYLINE
  8
21
 66
1
 10
0.0000
 20
0.0000
 30
0.0000
 40
0.1524
 41
0.1524
 70
0
  0
VERTEX
  8
21
 10
57.5818
 20
62.3623
 30
0.0000
  0
VERTEX
  8
21
 10
55.9562
 20
62.3623
 30
0.0000
  0
SEQEND
  8
0
  0
POLYLINE
  8
21
 66
1
 10
0.0000
 20
0.0000
 30
0.0000
 40
0.0762
 41
0.0762
 70
0
  0
VERTEX
  8
21
 10
55.9562
 20
62.4004
 30
0.0000
 42
1.0000
  0
VERTEX
  8
21
 10
55.9562
 20
62.3242
 30
0.0000
  0
SEQEND
  8
0
  0
POLYLINE
  8
21
 66
1
 10
0.0000
 20
0.0000
 30
0.0000
 40
0.0762
 41
0.0762
 70
0
  0
VERTEX
  8
21
 10
57.5818
 20
62.3242
 30
0.0000
 42
1.0000
  0
VERTEX
  8
21
 10
57.5818
 20
62.4004
 30
0.0000
  0
SEQEND
  8
0
  0
POLYLINE
  8
21
 66
1
 10
0.0000
 20
0.0000
 30
0.0000
 40
0.1524
 41
0.1524
 70
0
  0
VERTEX
  8
21
 10
55.9562
 20
62.3623
 30
0.0000
  0
VERTEX
  8
21
 10
55.9562
 20
62.8138
 30
0.0000
  0
SEQEND
  8
0
  0
POLYLINE
  8
21
 66
1
 10
0.0000
 20
0.0000
 30
0.0000
 40
0.0762
 41
0.0762
 70
0
  0
VERTEX
  8
21
 10
55.9943
 20
62.8138
 30
0.0000
 42
1.0000
  0
VERTEX
  8
21
 10
55.9181
 20
62.8138
 30
0.0000
  0
SEQEND
  8
0
  0
POLYLINE
  8
21
 66
1
 10
0.0000
 20
0.0000
 30
0.0000
 40
0.0762
 41
0.0762
 70
0
  0
VERTEX
  8
21
 10
55.9181
 20
62.3623
 30
0.0000
 42
1.0000
  0
VERTEX
  8
21
 10
55.9943
 20
62.3623
 30
0.0000
  0
SEQEND
  8
0
  0
POLYLINE
  8
21
 66
1
 10
0.0000
 20
0.0000
 30
0.0000
 40
0.1524
 41
0.1524
 70
0
  0
VERTEX
  8
21
 10
56.8593
 20
62.8138
 30
0.0000
 42
1.0000
  0
VERTEX
  8
21
 10
55.9562
 20
62.8138
 30
0.0000
  0
SEQEND
  8
0
  0
POLYLINE
  8
21
 66
1
 10
0.0000
 20
0.0000
 30
0.0000
 40
0.0762
 41
0.0762
 70
0
  0
VERTEX
  8
21
 10
56.8212
 20
62.8138
 30
0.0000
 42
1.0000
  0
VERTEX
  8
21
 10
56.8974
 20
62.8138
 30
0.0000
  0
SEQEND
  8
0
  0
POLYLINE
  8
21
 66
1
 10
0.0000
 20
0.0000
 30
0.0000
 40
0.0762
 41
0.0762
 70
0
  0
VERTEX
  8
21
 10
55.9181
 20
62.8138
 30
0.0000
 42
1.0000
  0
VERTEX
  8
21
 10
55.9943
 20
62.8138
 30
0.0000
  0
SEQEND
  8
0
  0
POLYLINE
  8
21
 66
1
 10
0.0000
 20
0.0000
 30
0.0000
 40
0.1524
 41
0.1524
 70
0
  0
VERTEX
  8
21
 10
56.8593
 20
62.8138
 30
0.0000
  0
VERTEX
  8
21
 10
56.8593
 20
62.3623
 30
0.0000
  0
SEQEND
  8
0
  0
POLYLINE
  8
21
 66
1
 10
0.0000
 20
0.0000
 30
0.0000
 40
0.0762
 41
0.0762
 70
0
  0
VERTEX
  8
21
 10
56.8212
 20
62.3623
 30
0.0000
 42
1.0000
  0
VERTEX
  8
21
 10
56.8974
 20
62.3623
 30
0.0000
  0
SEQEND
  8
0
  0
POLYLINE
  8
21
 66
1
 10
0.0000
 20
0.0000
 30
0.0000
 40
0.0762
 41
0.0762
 70
0
  0
VERTEX
  8
21
 10
56.8974
 20
62.8138
 30
0.0000
 42
1.0000
  0
VERTEX
  8
21
 10
56.8212
 20
62.8138
 30
0.0000
  0
SEQEND
  8
0
  0
POLYLINE
  8
21
 66
1
 10
0.0000
 20
0.0000
 30
0.0000
 40
0.1524
 41
0.1524
 70
0
  0
VERTEX
  8
21
 10
57.5818
 20
63.2654
 30
0.0000
  0
VERTEX
  8
21
 10
56.8593
 20
62.9041
 30
0.0000
  0
SEQEND
  8
0
  0
POLYLINE
  8
21
 66
1
 10
0.0000
 20
0.0000
 30
0.0000
 40
0.0762
 41
0.0762
 70
0
  0
VERTEX
  8
21
 10
56.8423
 20
62.9382
 30
0.0000
 42
1.0000
  0
VERTEX
  8
21
 10
56.8764
 20
62.8701
 30
0.0000
  0
SEQEND
  8
0
  0
POLYLINE
  8
21
 66
1
 10
0.0000
 20
0.0000
 30
0.0000
 40
0.0762
 41
0.0762
 70
0
  0
VERTEX
  8
21
 10
57.5988
 20
63.2313
 30
0.0000
 42
1.0000
  0
VERTEX
  8
21
 10
57.5648
 20
63.2994
 30
0.0000
  0
SEQEND
  8
0
  0
POLYLINE
  8
21
 66
1
 10
0.0000
 20
0.0000
 30
0.0000
 40
0.1524
 41
0.1524
 70
0
  0
VERTEX
  8
21
 10
57.5818
 20
64.6938
 30
0.0000
  0
VERTEX
  8
21
 10
57.5818
 20
63.9713
 30
0.0000
  0
SEQEND
  8
0
  0
POLYLINE
  8
21
 66
1
 10
0.0000
 20
0.0000
 30
0.0000
 40
0.0762
 41
0.0762
 70
0
  0
VERTEX
  8
21
 10
57.5437
 20
63.9713
 30
0.0000
 42
1.0000
  0
VERTEX
  8
21
 10
57.6199
 20
63.9713
 30
0.0000
  0
SEQEND
  8
0
  0
POLYLINE
  8
21
 66
1
 10
0.0000
 20
0.0000
 30
0.0000
 40
0.0762
 41
0.0762
 70
0
  0
VERTEX
  8
21
 10
57.6199
 20
64.6938
 30
0.0000
 42
1.0000
  0
VERTEX
  8
21
 10
57.5437
 20
64.6938
 30
0.0000
  0
SEQEND
  8
0
  0
POLYLINE
  8
21
 66
1
 10
0.0000
 20
0.0000
 30
0.0000
 40
0.1524
 41
0.1524
 70
0
  0
VERTEX
  8
21
 10
57.5818
 20
63.9713
 30
0.0000
  0
VERTEX
  8
21
 10
55.9562
 20
63.9713
 30
0.0000
  0
SEQEND
  8
0
  0
POLYLINE
  8
21
 66
1
 10
0.0000
 20
0.0000
 30
0.0000
 40
0.0762
 41
0.0762
 70
0
  0
VERTEX
  8
21
 10
55.9562
 20
64.0094
 30
0.0000
 42
1.0000
  0
VERTEX
  8
21
 10
55.9562
 20
63.9332
 30
0.0000
  0
SEQEND
  8
0
  0
POLYLINE
  8
21
 66
1
 10
0.0000
 20
0.0000
 30
0.0000
 40
0.0762
 41
0.0762
 70
0
  0
VERTEX
  8
21
 10
57.5818
 20
63.9332
 30
0.0000
 42
1.0000
  0
VERTEX
  8
21
 10
57.5818
 20
64.0094
 30
0.0000
  0
SEQEND
  8
0
  0
POLYLINE
  8
21
 66
1
 10
0.0000
 20
0.0000
 30
0.0000
 40
0.1524
 41
0.1524
 70
0
  0
VERTEX
  8
21
 10
55.9562
 20
63.9713
 30
0.0000
  0
VERTEX
  8
21
 10
55.9562
 20
64.6938
 30
0.0000
  0
SEQEND
  8
0
  0
POLYLINE
  8
21
 66
1
 10
0.0000
 20
0.0000
 30
0.0000
 40
0.0762
 41
0.0762
 70
0
  0
VERTEX
  8
21
 10
55.9943
 20
64.6938
 30
0.0000
 42
1.0000
  0
VERTEX
  8
21
 10
55.9181
 20
64.6938
 30
0.0000
  0
SEQEND
  8
0
  0
POLYLINE
  8
21
 66
1
 10
0.0000
 20
0.0000
 30
0.0000
 40
0.0762
 41
0.0762
 70
0
  0
VERTEX
  8
21
 10
55.9181
 20
63.9713
 30
0.0000
 42
1.0000
  0
VERTEX
  8
21
 10
55.9943
 20
63.9713
 30
0.0000
  0
SEQEND
  8
0
  0
POLYLINE
  8
21
 66
1
 10
0.0000
 20
0.0000
 30
0.0000
 40
0.1524
 41
0.1524
 70
0
  0
VERTEX
  8
21
 10
56.6787
 20
63.9713
 30
0.0000
  0
VERTEX
  8
21
 10
56.6787
 20
64.5132
 30
0.0000
  0
SEQEND
  8
0
  0
POLYLINE
  8
21
 66
1
 10
0.0000
 20
0.0000
 30
0.0000
 40
0.0762
 41
0.0762
 70
0
  0
VERTEX
  8
21
 10
56.7168
 20
64.5132
 30
0.0000
 42
1.0000
  0
VERTEX
  8
21
 10
56.6406
 20
64.5132
 30
0.0000
  0
SEQEND
  8
0
  0
POLYLINE
  8
21
 66
1
 10
0.0000
 20
0.0000
 30
0.0000
 40
0.0762
 41
0.0762
 70
0
  0
VERTEX
  8
21
 10
56.6406
 20
63.9713
 30
0.0000
 42
1.0000
  0
VERTEX
  8
21
 10
56.7168
 20
63.9713
 30
0.0000
  0
SEQEND
  8
0
  0
INSERT
  8
17
  2
SQUAREP
 10
60.9600
 20
66.0400
 30
0.0000
 41
1.9500
 42
1.9500
 43
1.0000
 50
180.0000
  0
INSERT
  8
17
  2
SQUAREP
 10
60.9600
 20
66.0400
 30
0.0000
 41
1.9500
 42
1.9500
 43
1.0000
 50
180.0000
  0
INSERT
  8
17
  2
SQUAREP
 10
60.9600
 20
62.2300
 30
0.0000
 41
1.9500
 42
1.9500
 43
1.0000
 50
180.0000
  0
INSERT
  8
17
  2
SQUAREP
 10
60.9600
 20
62.2300
 30
0.0000
 41
1.9500
 42
1.9500
 43
1.0000
 50
180.0000
  0
INSERT
  8
17
  2
SQUAREP
 10
60.9600
 20
54.6100
 30
0.0000
 41
1.9500
 42
1.9500
 43
1.0000
 50
180.0000
  0
INSERT
  8
17
  2
SQUAREP
 10
60.9600
 20
54.6100
 30
0.0000
 41
1.9500
 42
1.9500
 43
1.0000
 50
180.0000
  0
POINT
  8
23
 10
27.9400
 20
29.2100
 30
0.0000
  0
POLYLINE
  8
21
 66
1
 10
0.0000
 20
0.0000
 30
0.0000
 40
0.1524
 41
0.1524
 70
0
  0
VERTEX
  8
21
 10
30.4800
 20
27.9400
 30
0.0000
  0
VERTEX
  8
21
 10
30.4800
 20
30.4800
 30
0.0000
  0
SEQEND
  8
0
  0
POLYLINE
  8
21
 66
1
 10
0.0000
 20
0.0000
 30
0.0000
 40
0.0762
 41
0.0762
 70
0
  0
VERTEX
  8
21
 10
30.5181
 20
30.4800
 30
0.0000
 42
1.0000
  0
VERTEX
  8
21
 10
30.4419
 20
30.4800
 30
0.0000
  0
SEQEND
  8
0
  0
POLYLINE
  8
21
 66
1
 10
0.0000
 20
0.0000
 30
0.0000
 40
0.0762
 41
0.0762
 70
0
  0
VERTEX
  8
21
 10
30.4419
 20
27.9400
 30
0.0000
 42
1.0000
  0
VERTEX
  8
21
 10
30.5181
 20
27.9400
 30
0.0000
  0
SEQEND
  8
0
  0
POLYLINE
  8
21
 66
1
 10
0.0000
 20
0.0000
 30
0.0000
 40
0.1524
 41
0.1524
 70
0
  0
VERTEX
  8
21
 10
30.4800
 20
30.4800
 30
0.0000
  0
VERTEX
  8
21
 10
13.9700
 20
30.4800
 30
0.0000
  0
SEQEND
  8
0
  0
POLYLINE
  8
21
 66
1
 10
0.0000
 20
0.0000
 30
0.0000
 40
0.0762
 41
0.0762
 70
0
  0
VERTEX
  8
21
 10
13.9700
 20
30.5181
 30
0.0000
 42
1.0000
  0
VERTEX
  8
21
 10
13.9700
 20
30.4419
 30
0.0000
  0
SEQEND
  8
0
  0
POLYLINE
  8
21
 66
1
 10
0.0000
 20
0.0000
 30
0.0000
 40
0.0762
 41
0.0762
 70
0
  0
VERTEX
  8
21
 10
30.4800
 20
30.4419
 30
0.0000
 42
1.0000
  0
VERTEX
  8
21
 10
30.4800
 20
30.5181
 30
0.0000
  0
SEQEND
  8
0
  0
POLYLINE
  8
21
 66
1
 10
0.0000
 20
0.0000
 30
0.0000
 40
0.1524
 41
0.1524
 70
0
  0
VERTEX
  8
21
 10
13.9700
 20
27.9400
 30
0.0000
  0
VERTEX
  8
21
 10
30.4800
 20
27.9400
 30
0.0000
  0
SEQEND
  8
0
  0
POLYLINE
  8
21
 66
1
 10
0.0000
 20
0.0000
 30
0.0000
 40
0.0762
 41
0.0762
 70
0
  0
VERTEX
  8
21
 10
30.4800
 20
27.9019
 30
0.0000
 42
1.0000
  0
VERTEX
  8
21
 10
30.4800
 20
27.9781
 30
0.0000
  0
SEQEND
  8
0
  0
POLYLINE
  8
21
 66
1
 10
0.0000
 20
0.0000
 30
0.0000
 40
0.0762
 41
0.0762
 70
0
  0
VERTEX
  8
21
 10
13.9700
 20
27.9781
 30
0.0000
 42
1.0000
  0
VERTEX
  8
21
 10
13.9700
 20
27.9019
 30
0.0000
  0
SEQEND
  8
0
  0
POLYLINE
  8
21
 66
1
 10
0.0000
 20
0.0000
 30
0.0000
 40
0.1524
 41
0.1524
 70
0
  0
VERTEX
  8
21
 10
31.7500
 20
26.6700
 30
0.0000
  0
VERTEX
  8
21
 10
31.7500
 20
36.8300
 30
0.0000
  0
SEQEND
  8
0
  0
POLYLINE
  8
21
 66
1
 10
0.0000
 20
0.0000
 30
0.0000
 40
0.0762
 41
0.0762
 70
0
  0
VERTEX
  8
21
 10
31.7881
 20
36.8300
 30
0.0000
 42
1.0000
  0
VERTEX
  8
21
 10
31.7119
 20
36.8300
 30
0.0000
  0
SEQEND
  8
0
  0
POLYLINE
  8
21
 66
1
 10
0.0000
 20
0.0000
 30
0.0000
 40
0.0762
 41
0.0762
 70
0
  0
VERTEX
  8
21
 10
31.7119
 20
26.6700
 30
0.0000
 42
1.0000
  0
VERTEX
  8
21
 10
31.7881
 20
26.6700
 30
0.0000
  0
SEQEND
  8
0
  0
POLYLINE
  8
21
 66
1
 10
0.0000
 20
0.0000
 30
0.0000
 40
0.1524
 41
0.1524
 70
0
  0
VERTEX
  8
21
 10
31.7500
 20
36.8300
 30
0.0000
  0
VERTEX
  8
21
 10
12.7000
 20
36.8300
 30
0.0000
  0
SEQEND
  8
0
  0
POLYLINE
  8
21
 66
1
 10
0.0000
 20
0.0000
 30
0.0000
 40
0.0762
 41
0.0762
 70
0
  0
VERTEX
  8
21
 10
12.7000
 20
36.8681
 30
0.0000
 42
1.0000
  0
VERTEX
  8
21
 10
12.7000
 20
36.7919
 30
0.0000
  0
SEQEND
  8
0
  0
POLYLINE
  8
21
 66
1
 10
0.0000
 20
0.0000
 30
0.0000
 40
0.0762
 41
0.0762
 70
0
  0
VERTEX
  8
21
 10
31.7500
 20
36.7919
 30
0.0000
 42
1.0000
  0
VERTEX
  8
21
 10
31.7500
 20
36.8681
 30
0.0000
  0
SEQEND
  8
0
  0
POLYLINE
  8
21
 66
1
 10
0.0000
 20
0.0000
 30
0.0000
 40
0.1524
 41
0.1524
 70
0
  0
VERTEX
  8
21
 10
12.7000
 20
26.6700
 30
0.0000
  0
VERTEX
  8
21
 10
31.7500
 20
26.6700
 30
0.0000
  0
SEQEND
  8
0
  0
POLYLINE
  8
21
 66
1
 10
0.0000
 20
0.0000
 30
0.0000
 40
0.0762
 41
0.0762
 70
0
  0
VERTEX
  8
21
 10
31.7500
 20
26.6319
 30
0.0000
 42
1.0000
  0
VERTEX
  8
21
 10
31.7500
 20
26.7081
 30
0.0000
  0
SEQEND
  8
0
  0
POLYLINE
  8
21
 66
1
 10
0.0000
 20
0.0000
 30
0.0000
 40
0.0762
 41
0.0762
 70
0
  0
VERTEX
  8
21
 10
12.7000
 20
26.7081
 30
0.0000
 42
1.0000
  0
VERTEX
  8
21
 10
12.7000
 20
26.6319
 30
0.0000
  0
SEQEND
  8
0
  0
POLYLINE
  8
21
 66
1
 10
0.0000
 20
0.0000
 30
0.0000
 40
0.1524
 41
0.1524
 70
0
  0
VERTEX
  8
21
 10
13.9700
 20
27.9400
 30
0.0000
  0
VERTEX
  8
21
 10
13.9700
 20
30.4800
 30
0.0000
  0
SEQEND
  8
0
  0
POLYLINE
  8
21
 66
1
 10
0.0000
 20
0.0000
 30
0.0000
 40
0.0762
 41
0.0762
 70
0
  0
VERTEX
  8
21
 10
14.0081
 20
30.4800
 30
0.0000
 42
1.0000
  0
VERTEX
  8
21
 10
13.9319
 20
30.4800
 30
0.0000
  0
SEQEND
  8
0
  0
POLYLINE
  8
21
 66
1
 10
0.0000
 20
0.0000
 30
0.0000
 40
0.0762
 41
0.0762
 70
0
  0
VERTEX
  8
21
 10
13.9319
 20
27.9400
 30
0.0000
 42
1.0000
  0
VERTEX
  8
21
 10
14.0081
 20
27.9400
 30
0.0000
  0
SEQEND
  8
0
  0
POLYLINE
  8
21
 66
1
 10
0.0000
 20
0.0000
 30
0.0000
 40
0.1524
 41
0.1524
 70
0
  0
VERTEX
  8
21
 10
12.7000
 20
26.6700
 30
0.0000
  0
VERTEX
  8
21
 10
12.7000
 20
36.8300
 30
0.0000
  0
SEQEND
  8
0
  0
POLYLINE
  8
21
 66
1
 10
0.0000
 20
0.0000
 30
0.0000
 40
0.0762
 41
0.0762
 70
0
  0
VERTEX
  8
21
 10
12.7381
 20
36.8300
 30
0.0000
 42
1.0000
  0
VERTEX
  8
21
 10
12.6619
 20
36.8300
 30
0.0000
  0
SEQEND
  8
0
  0
POLYLINE
  8
21
 66
1
 10
0.0000
 20
0.0000
 30
0.0000
 40
0.0762
 41
0.0762
 70
0
  0
VERTEX
  8
21
 10
12.6619
 20
26.6700
 30
0.0000
 42
1.0000
  0
VERTEX
  8
21
 10
12.7381
 20
26.6700
 30
0.0000
  0
SEQEND
  8
0
  0
POLYLINE
  8
21
 66
1
 10
0.0000
 20
0.0000
 30
0.0000
 40
0.1524
 41
0.1524
 70
0
  0
VERTEX
  8
21
 10
25.1601
 20
31.3182
 30
0.0000
  0
VERTEX
  8
21
 10
25.1601
 20
32.9438
 30
0.0000
  0
SEQEND
  8
0
  0
POLYLINE
  8
21
 66
1
 10
0.0000
 20
0.0000
 30
0.0000
 40
0.0762
 41
0.0762
 70
0
  0
VERTEX
  8
21
 10
25.1982
 20
32.9438
 30
0.0000
 42
1.0000
  0
VERTEX
  8
21
 10
25.1220
 20
32.9438
 30
0.0000
  0
SEQEND
  8
0
  0
POLYLINE
  8
21
 66
1
 10
0.0000
 20
0.0000
 30
0.0000
 40
0.0762
 41
0.0762
 70
0
  0
VERTEX
  8
21
 10
25.1220
 20
31.3182
 30
0.0000
 42
1.0000
  0
VERTEX
  8
21
 10
25.1982
 20
31.3182
 30
0.0000
  0
SEQEND
  8
0
  0
POLYLINE
  8
21
 66
1
 10
0.0000
 20
0.0000
 30
0.0000
 40
0.1524
 41
0.1524
 70
0
  0
VERTEX
  8
21
 10
25.1601
 20
32.9438
 30
0.0000
  0
VERTEX
  8
21
 10
25.6117
 20
32.9438
 30
0.0000
  0
SEQEND
  8
0
  0
POLYLINE
  8
21
 66
1
 10
0.0000
 20
0.0000
 30
0.0000
 40
0.0762
 41
0.0762
 70
0
  0
VERTEX
  8
21
 10
25.6117
 20
32.9057
 30
0.0000
 42
1.0000
  0
VERTEX
  8
21
 10
25.6117
 20
32.9819
 30
0.0000
  0
SEQEND
  8
0
  0
POLYLINE
  8
21
 66
1
 10
0.0000
 20
0.0000
 30
0.0000
 40
0.0762
 41
0.0762
 70
0
  0
VERTEX
  8
21
 10
25.1601
 20
32.9819
 30
0.0000
 42
1.0000
  0
VERTEX
  8
21
 10
25.1601
 20
32.9057
 30
0.0000
  0
SEQEND
  8
0
  0
POLYLINE
  8
21
 66
1
 10
0.0000
 20
0.0000
 30
0.0000
 40
0.1524
 41
0.1524
 70
0
  0
VERTEX
  8
21
 10
25.6117
 20
32.0407
 30
0.0000
 42
1.0000
  0
VERTEX
  8
21
 10
25.6117
 20
32.9438
 30
0.0000
  0
SEQEND
  8
0
  0
POLYLINE
  8
21
 66
1
 10
0.0000
 20
0.0000
 30
0.0000
 40
0.0762
 41
0.0762
 70
0
  0
VERTEX
  8
21
 10
25.6117
 20
32.0788
 30
0.0000
 42
1.0000
  0
VERTEX
  8
21
 10
25.6117
 20
32.0026
 30
0.0000
  0
SEQEND
  8
0
  0
POLYLINE
  8
21
 66
1
 10
0.0000
 20
0.0000
 30
0.0000
 40
0.0762
 41
0.0762
 70
0
  0
VERTEX
  8
21
 10
25.6117
 20
32.9819
 30
0.0000
 42
1.0000
  0
VERTEX
  8
21
 10
25.6117
 20
32.9057
 30
0.0000
  0
SEQEND
  8
0
  0
POLYLINE
  8
21
 66
1
 10
0.0000
 20
0.0000
 30
0.0000
 40
0.1524
 41
0.1524
 70
0
  0
VERTEX
  8
21
 10
25.6117
 20
32.0407
 30
0.0000
  0
VERTEX
  8
21
 10
25.1601
 20
32.0407
 30
0.0000
  0
SEQEND
  8
0
  0
POLYLINE
  8
21
 66
1
 10
0.0000
 20
0.0000
 30
0.0000
 40
0.0762
 41
0.0762
 70
0
  0
VERTEX
  8
21
 10
25.1601
 20
32.0788
 30
0.0000
 42
1.0000
  0
VERTEX
  8
21
 10
25.1601
 20
32.0026
 30
0.0000
  0
SEQEND
  8
0
  0
POLYLINE
  8
21
 66
1
 10
0.0000
 20
0.0000
 30
0.0000
 40
0.0762
 41
0.0762
 70
0
  0
VERTEX
  8
21
 10
25.6117
 20
32.0026
 30
0.0000
 42
1.0000
  0
VERTEX
  8
21
 10
25.6117
 20
32.0788
 30
0.0000
  0
SEQEND
  8
0
  0
POLYLINE
  8
21
 66
1
 10
0.0000
 20
0.0000
 30
0.0000
 40
0.1524
 41
0.1524
 70
0
  0
VERTEX
  8
21
 10
26.0632
 20
31.3182
 30
0.0000
  0
VERTEX
  8
21
 10
25.7020
 20
32.0407
 30
0.0000
  0
SEQEND
  8
0
  0
POLYLINE
  8
21
 66
1
 10
0.0000
 20
0.0000
 30
0.0000
 40
0.0762
 41
0.0762
 70
0
  0
VERTEX
  8
21
 10
25.7360
 20
32.0577
 30
0.0000
 42
1.0000
  0
VERTEX
  8
21
 10
25.6679
 20
32.0236
 30
0.0000
  0
SEQEND
  8
0
  0
POLYLINE
  8
21
 66
1
 10
0.0000
 20
0.0000
 30
0.0000
 40
0.0762
 41
0.0762
 70
0
  0
VERTEX
  8
21
 10
26.0291
 20
31.3012
 30
0.0000
 42
1.0000
  0
VERTEX
  8
21
 10
26.0973
 20
31.3352
 30
0.0000
  0
SEQEND
  8
0
  0
POLYLINE
  8
21
 66
1
 10
0.0000
 20
0.0000
 30
0.0000
 40
0.1524
 41
0.1524
 70
0
  0
VERTEX
  8
21
 10
26.7801
 20
31.3182
 30
0.0000
  0
VERTEX
  8
21
 10
26.7801
 20
32.9438
 30
0.0000
  0
SEQEND
  8
0
  0
POLYLINE
  8
21
 66
1
 10
0.0000
 20
0.0000
 30
0.0000
 40
0.0762
 41
0.0762
 70
0
  0
VERTEX
  8
21
 10
26.8182
 20
32.9438
 30
0.0000
 42
1.0000
  0
VERTEX
  8
21
 10
26.7420
 20
32.9438
 30
0.0000
  0
SEQEND
  8
0
  0
POLYLINE
  8
21
 66
1
 10
0.0000
 20
0.0000
 30
0.0000
 40
0.0762
 41
0.0762
 70
0
  0
VERTEX
  8
21
 10
26.7420
 20
31.3182
 30
0.0000
 42
1.0000
  0
VERTEX
  8
21
 10
26.8182
 20
31.3182
 30
0.0000
  0
SEQEND
  8
0
  0
POLYLINE
  8
21
 66
1
 10
0.0000
 20
0.0000
 30
0.0000
 40
0.1524
 41
0.1524
 70
0
  0
VERTEX
  8
21
 10
26.7801
 20
32.9438
 30
0.0000
  0
VERTEX
  8
21
 10
27.3219
 20
32.0407
 30
0.0000
  0
SEQEND
  8
0
  0
POLYLINE
  8
21
 66
1
 10
0.0000
 20
0.0000
 30
0.0000
 40
0.0762
 41
0.0762
 70
0
  0
VERTEX
  8
21
 10
27.2893
 20
32.0211
 30
0.0000
 42
1.0000
  0
VERTEX
  8
21
 10
27.3546
 20
32.0603
 30
0.0000
  0
SEQEND
  8
0
  0
POLYLINE
  8
21
 66
1
 10
0.0000
 20
0.0000
 30
0.0000
 40
0.0762
 41
0.0762
 70
0
  0
VERTEX
  8
21
 10
26.8127
 20
32.9634
 30
0.0000
 42
1.0000
  0
VERTEX
  8
21
 10
26.7474
 20
32.9242
 30
0.0000
  0
SEQEND
  8
0
  0
POLYLINE
  8
21
 66
1
 10
0.0000
 20
0.0000
 30
0.0000
 40
0.1524
 41
0.1524
 70
0
  0
VERTEX
  8
21
 10
27.3219
 20
32.0407
 30
0.0000
  0
VERTEX
  8
21
 10
27.8638
 20
32.9438
 30
0.0000
  0
SEQEND
  8
0
  0
POLYLINE
  8
21
 66
1
 10
0.0000
 20
0.0000
 30
0.0000
 40
0.0762
 41
0.0762
 70
0
  0
VERTEX
  8
21
 10
27.8965
 20
32.9242
 30
0.0000
 42
1.0000
  0
VERTEX
  8
21
 10
27.8311
 20
32.9634
 30
0.0000
  0
SEQEND
  8
0
  0
POLYLINE
  8
21
 66
1
 10
0.0000
 20
0.0000
 30
0.0000
 40
0.0762
 41
0.0762
 70
0
  0
VERTEX
  8
21
 10
27.2893
 20
32.0603
 30
0.0000
 42
1.0000
  0
VERTEX
  8
21
 10
27.3546
 20
32.0211
 30
0.0000
  0
SEQEND
  8
0
  0
POLYLINE
  8
21
 66
1
 10
0.0000
 20
0.0000
 30
0.0000
 40
0.1524
 41
0.1524
 70
0
  0
VERTEX
  8
21
 10
27.8638
 20
32.9438
 30
0.0000
  0
VERTEX
  8
21
 10
27.8638
 20
31.3182
 30
0.0000
  0
SEQEND
  8
0
  0
POLYLINE
  8
21
 66
1
 10
0.0000
 20
0.0000
 30
0.0000
 40
0.0762
 41
0.0762
 70
0
  0
VERTEX
  8
21
 10
27.8257
 20
31.3182
 30
0.0000
 42
1.0000
  0
VERTEX
  8
21
 10
27.9019
 20
31.3182
 30
0.0000
  0
SEQEND
  8
0
  0
POLYLINE
  8
21
 66
1
 10
0.0000
 20
0.0000
 30
0.0000
 40
0.0762
 41
0.0762
 70
0
  0
VERTEX
  8
21
 10
27.9019
 20
32.9438
 30
0.0000
 42
1.0000
  0
VERTEX
  8
21
 10
27.8257
 20
32.9438
 30
0.0000
  0
SEQEND
  8
0
  0
INSERT
  8
17
  2
SQUAREP
 10
27.9400
 20
29.2100
 30
0.0000
 41
1.9500
 42
1.9500
 43
1.0000
 50
90.0000
  0
INSERT
  8
17
  2
SQUAREP
 10
27.9400
 20
29.2100
 30
0.0000
 41
1.9500
 42
1.9500
 43
1.0000
 50
90.0000
  0
INSERT
  8
17
  2
SQUAREP
 10
24.1300
 20
29.2100
 30
0.0000
 41
1.9500
 42
1.9500
 43
1.0000
 50
90.0000
  0
INSERT
  8
17
  2
SQUAREP
 10
24.1300
 20
29.2100
 30
0.0000
 41
1.9500
 42
1.9500
 43
1.0000
 50
90.0000
  0
INSERT
  8
17
  2
SQUAREP
 10
20.3200
 20
29.2100
 30
0.0000
 41
1.9500
 42
1.9500
 43
1.0000
 50
90.0000
  0
INSERT
  8
17
  2
SQUAREP
 10
20.3200
 20
29.2100
 30
0.0000
 41
1.9500
 42
1.9500
 43
1.0000
 50
90.0000
  0
POINT
  8
23
 10
60.9600
 20
39.3700
 30
0.0000
  0
POLYLINE
  8
21
 66
1
 10
0.0000
 20
0.0000
 30
0.0000
 40
0.1270
 41
0.1270
 70
0
  0
VERTEX
  8
21
 10
58.4200
 20
43.1800
 30
0.0000
  0
VERTEX
  8
21
 10
86.3600
 20
43.1800
 30
0.0000
  0
SEQEND
  8
0
  0
POLYLINE
  8
21
 66
1
 10
0.0000
 20
0.0000
 30
0.0000
 40
0.0635
 41
0.0635
 70
0
  0
VERTEX
  8
21
 10
86.3600
 20
43.1482
 30
0.0000
 42
1.0000
  0
VERTEX
  8
21
 10
86.3600
 20
43.2118
 30
0.0000
  0
SEQEND
  8
0
  0
POLYLINE
  8
21
 66
1
 10
0.0000
 20
0.0000
 30
0.0000
 40
0.0635
 41
0.0635
 70
0
  0
VERTEX
  8
21
 10
58.4200
 20
43.2118
 30
0.0000
 42
1.0000
  0
VERTEX
  8
21
 10
58.4200
 20
43.1482
 30
0.0000
  0
SEQEND
  8
0
  0
POLYLINE
  8
21
 66
1
 10
0.0000
 20
0.0000
 30
0.0000
 40
0.1270
 41
0.1270
 70
0
  0
VERTEX
  8
21
 10
86.3600
 20
43.1800
 30
0.0000
  0
VERTEX
  8
21
 10
86.3600
 20
0.0000
 30
0.0000
  0
SEQEND
  8
0
  0
POLYLINE
  8
21
 66
1
 10
0.0000
 20
0.0000
 30
0.0000
 40
0.0635
 41
0.0635
 70
0
  0
VERTEX
  8
21
 10
86.3282
 20
0.0000
 30
0.0000
 42
1.0000
  0
VERTEX
  8
21
 10
86.3918
 20
0.0000
 30
0.0000
  0
SEQEND
  8
0
  0
POLYLINE
  8
21
 66
1
 10
0.0000
 20
0.0000
 30
0.0000
 40
0.0635
 41
0.0635
 70
0
  0
VERTEX
  8
21
 10
86.3918
 20
43.1800
 30
0.0000
 42
1.0000
  0
VERTEX
  8
21
 10
86.3282
 20
43.1800
 30
0.0000
  0
SEQEND
  8
0
  0
POLYLINE
  8
21
 66
1
 10
0.0000
 20
0.0000
 30
0.0000
 40
0.1270
 41
0.1270
 70
0
  0
VERTEX
  8
21
 10
86.3600
 20
0.0000
 30
0.0000
  0
VERTEX
  8
21
 10
58.4200
 20
0.0000
 30
0.0000
  0
SEQEND
  8
0
  0
POLYLINE
  8
21
 66
1
 10
0.0000
 20
0.0000
 30
0.0000
 40
0.0635
 41
0.0635
 70
0
  0
VERTEX
  8
21
 10
58.4200
 20
0.0318
 30
0.0000
 42
1.0000
  0
VERTEX
  8
21
 10
58.4200
 20
-0.0318
 30
0.0000
  0
SEQEND
  8
0
  0
POLYLINE
  8
21
 66
1
 10
0.0000
 20
0.0000
 30
0.0000
 40
0.0635
 41
0.0635
 70
0
  0
VERTEX
  8
21
 10
86.3600
 20
-0.0318
 30
0.0000
 42
1.0000
  0
VERTEX
  8
21
 10
86.3600
 20
0.0318
 30
0.0000
  0
SEQEND
  8
0
  0
POLYLINE
  8
21
 66
1
 10
0.0000
 20
0.0000
 30
0.0000
 40
0.1524
 41
0.1524
 70
0
  0
VERTEX
  8
21
 10
58.4200
 20
43.1800
 30
0.0000
  0
VERTEX
  8
21
 10
55.8800
 20
43.1800
 30
0.0000
  0
SEQEND
  8
0
  0
POLYLINE
  8
21
 66
1
 10
0.0000
 20
0.0000
 30
0.0000
 40
0.0762
 41
0.0762
 70
0
  0
VERTEX
  8
21
 10
55.8800
 20
43.2181
 30
0.0000
 42
1.0000
  0
VERTEX
  8
21
 10
55.8800
 20
43.1419
 30
0.0000
  0
SEQEND
  8
0
  0
POLYLINE
  8
21
 66
1
 10
0.0000
 20
0.0000
 30
0.0000
 40
0.0762
 41
0.0762
 70
0
  0
VERTEX
  8
21
 10
58.4200
 20
43.1419
 30
0.0000
 42
1.0000
  0
VERTEX
  8
21
 10
58.4200
 20
43.2181
 30
0.0000
  0
SEQEND
  8
0
  0
POLYLINE
  8
21
 66
1
 10
0.0000
 20
0.0000
 30
0.0000
 40
0.1524
 41
0.1524
 70
0
  0
VERTEX
  8
21
 10
55.8800
 20
43.1800
 30
0.0000
  0
VERTEX
  8
21
 10
55.8800
 20
0.0000
 30
0.0000
  0
SEQEND
  8
0
  0
POLYLINE
  8
21
 66
1
 10
0.0000
 20
0.0000
 30
0.0000
 40
0.0762
 41
0.0762
 70
0
  0
VERTEX
  8
21
 10
55.8419
 20
0.0000
 30
0.0000
 42
1.0000
  0
VERTEX
  8
21
 10
55.9181
 20
0.0000
 30
0.0000
  0
SEQEND
  8
0
  0
POLYLINE
  8
21
 66
1
 10
0.0000
 20
0.0000
 30
0.0000
 40
0.0762
 41
0.0762
 70
0
  0
VERTEX
  8
21
 10
55.9181
 20
43.1800
 30
0.0000
 42
1.0000
  0
VERTEX
  8
21
 10
55.8419
 20
43.1800
 30
0.0000
  0
SEQEND
  8
0
  0
POLYLINE
  8
21
 66
1
 10
0.0000
 20
0.0000
 30
0.0000
 40
0.1524
 41
0.1524
 70
0
  0
VERTEX
  8
21
 10
55.8800
 20
0.0000
 30
0.0000
  0
VERTEX
  8
21
 10
58.4200
 20
0.0000
 30
0.0000
  0
SEQEND
  8
0
  0
POLYLINE
  8
21
 66
1
 10
0.0000
 20
0.0000
 30
0.0000
 40
0.0762
 41
0.0762
 70
0
  0
VERTEX
  8
21
 10
58.4200
 20
-0.0381
 30
0.0000
 42
1.0000
  0
VERTEX
  8
21
 10
58.4200
 20
0.0381
 30
0.0000
  0
SEQEND
  8
0
  0
POLYLINE
  8
21
 66
1
 10
0.0000
 20
0.0000
 30
0.0000
 40
0.0762
 41
0.0762
 70
0
  0
VERTEX
  8
21
 10
55.8800
 20
0.0381
 30
0.0000
 42
1.0000
  0
VERTEX
  8
21
 10
55.8800
 20
-0.0381
 30
0.0000
  0
SEQEND
  8
0
  0
POLYLINE
  8
21
 66
1
 10
0.0000
 20
0.0000
 30
0.0000
 40
0.1524
 41
0.1524
 70
0
  0
VERTEX
  8
21
 10
55.8800
 20
0.0000
 30
0.0000
  0
VERTEX
  8
21
 10
55.8800
 20
-2.5400
 30
0.0000
  0
SEQEND
  8
0
  0
POLYLINE
  8
21
 66
1
 10
0.0000
 20
0.0000
 30
0.0000
 40
0.0762
 41
0.0762
 70
0
  0
VERTEX
  8
21
 10
55.8419
 20
-2.5400
 30
0.0000
 42
1.0000
  0
VERTEX
  8
21
 10
55.9181
 20
-2.5400
 30
0.0000
  0
SEQEND
  8
0
  0
POLYLINE
  8
21
 66
1
 10
0.0000
 20
0.0000
 30
0.0000
 40
0.0762
 41
0.0762
 70
0
  0
VERTEX
  8
21
 10
55.9181
 20
0.0000
 30
0.0000
 42
1.0000
  0
VERTEX
  8
21
 10
55.8419
 20
0.0000
 30
0.0000
  0
SEQEND
  8
0
  0
POLYLINE
  8
21
 66
1
 10
0.0000
 20
0.0000
 30
0.0000
 40
0.1524
 41
0.1524
 70
0
  0
VERTEX
  8
21
 10
55.8800
 20
-2.5400
 30
0.0000
  0
VERTEX
  8
21
 10
86.3600
 20
-2.5400
 30
0.0000
  0
SEQEND
  8
0
  0
POLYLINE
  8
21
 66
1
 10
0.0000
 20
0.0000
 30
0.0000
 40
0.0762
 41
0.0762
 70
0
  0
VERTEX
  8
21
 10
86.3600
 20
-2.5781
 30
0.0000
 42
1.0000
  0
VERTEX
  8
21
 10
86.3600
 20
-2.5019
 30
0.0000
  0
SEQEND
  8
0
  0
POLYLINE
  8
21
 66
1
 10
0.0000
 20
0.0000
 30
0.0000
 40
0.0762
 41
0.0762
 70
0
  0
VERTEX
  8
21
 10
55.8800
 20
-2.5019
 30
0.0000
 42
1.0000
  0
VERTEX
  8
21
 10
55.8800
 20
-2.5781
 30
0.0000
  0
SEQEND
  8
0
  0
POLYLINE
  8
21
 66
1
 10
0.0000
 20
0.0000
 30
0.0000
 40
0.1524
 41
0.1524
 70
0
  0
VERTEX
  8
21
 10
86.3600
 20
-2.5400
 30
0.0000
  0
VERTEX
  8
21
 10
86.3600
 20
0.0000
 30
0.0000
  0
SEQEND
  8
0
  0
POLYLINE
  8
21
 66
1
 10
0.0000
 20
0.0000
 30
0.0000
 40
0.0762
 41
0.0762
 70
0
  0
VERTEX
  8
21
 10
86.3981
 20
0.0000
 30
0.0000
 42
1.0000
  0
VERTEX
  8
21
 10
86.3219
 20
0.0000
 30
0.0000
  0
SEQEND
  8
0
  0
POLYLINE
  8
21
 66
1
 10
0.0000
 20
0.0000
 30
0.0000
 40
0.0762
 41
0.0762
 70
0
  0
VERTEX
  8
21
 10
86.3219
 20
-2.5400
 30
0.0000
 42
1.0000
  0
VERTEX
  8
21
 10
86.3981
 20
-2.5400
 30
0.0000
  0
SEQEND
  8
0
  0
POLYLINE
  8
21
 66
1
 10
0.0000
 20
0.0000
 30
0.0000
 40
0.1524
 41
0.1524
 70
0
  0
VERTEX
  8
21
 10
86.3600
 20
0.0000
 30
0.0000
  0
VERTEX
  8
21
 10
86.3600
 20
49.5300
 30
0.0000
  0
SEQEND
  8
0
  0
POLYLINE
  8
21
 66
1
 10
0.0000
 20
0.0000
 30
0.0000
 40
0.0762
 41
0.0762
 70
0
  0
VERTEX
  8
21
 10
86.3981
 20
49.5300
 30
0.0000
 42
1.0000
  0
VERTEX
  8
21
 10
86.3219
 20
49.5300
 30
0.0000
  0
SEQEND
  8
0
  0
POLYLINE
  8
21
 66
1
 10
0.0000
 20
0.0000
 30
0.0000
 40
0.0762
 41
0.0762
 70
0
  0
VERTEX
  8
21
 10
86.3219
 20
0.0000
 30
0.0000
 42
1.0000
  0
VERTEX
  8
21
 10
86.3981
 20
0.0000
 30
0.0000
  0
SEQEND
  8
0
  0
POLYLINE
  8
21
 66
1
 10
0.0000
 20
0.0000
 30
0.0000
 40
0.1524
 41
0.1524
 70
0
  0
VERTEX
  8
21
 10
86.3600
 20
49.5300
 30
0.0000
  0
VERTEX
  8
21
 10
55.8800
 20
49.5300
 30
0.0000
  0
SEQEND
  8
0
  0
POLYLINE
  8
21
 66
1
 10
0.0000
 20
0.0000
 30
0.0000
 40
0.0762
 41
0.0762
 70
0
  0
VERTEX
  8
21
 10
55.8800
 20
49.5681
 30
0.0000
 42
1.0000
  0
VERTEX
  8
21
 10
55.8800
 20
49.4919
 30
0.0000
  0
SEQEND
  8
0
  0
POLYLINE
  8
21
 66
1
 10
0.0000
 20
0.0000
 30
0.0000
 40
0.0762
 41
0.0762
 70
0
  0
VERTEX
  8
21
 10
86.3600
 20
49.4919
 30
0.0000
 42
1.0000
  0
VERTEX
  8
21
 10
86.3600
 20
49.5681
 30
0.0000
  0
SEQEND
  8
0
  0
POLYLINE
  8
21
 66
1
 10
0.0000
 20
0.0000
 30
0.0000
 40
0.1524
 41
0.1524
 70
0
  0
VERTEX
  8
21
 10
55.8800
 20
49.5300
 30
0.0000
  0
VERTEX
  8
21
 10
55.8800
 20
43.1800
 30
0.0000
  0
SEQEND
  8
0
  0
POLYLINE
  8
21
 66
1
 10
0.0000
 20
0.0000
 30
0.0000
 40
0.0762
 41
0.0762
 70
0
  0
VERTEX
  8
21
 10
55.8419
 20
43.1800
 30
0.0000
 42
1.0000
  0
VERTEX
  8
21
 10
55.9181
 20
43.1800
 30
0.0000
  0
SEQEND
  8
0
  0
POLYLINE
  8
21
 66
1
 10
0.0000
 20
0.0000
 30
0.0000
 40
0.0762
 41
0.0762
 70
0
  0
VERTEX
  8
21
 10
55.9181
 20
49.5300
 30
0.0000
 42
1.0000
  0
VERTEX
  8
21
 10
55.8419
 20
49.5300
 30
0.0000
  0
SEQEND
  8
0
  0
INSERT
  8
17
  2
SQUAREP
 10
58.4200
 20
39.3700
 30
0.0000
 41
1.6764
 42
1.6764
 43
1.0000
 50
180.0000
  0
INSERT
  8
17
  2
SQUAREP
 10
58.4200
 20
39.3700
 30
0.0000
 41
1.6764
 42
1.6764
 43
1.0000
 50
180.0000
  0
INSERT
  8
17
  2
SQUAREP
 10
58.4200
 20
36.8300
 30
0.0000
 41
1.6764
 42
1.6764
 43
1.0000
 50
180.0000
  0
INSERT
  8
17
  2
SQUAREP
 10
58.4200
 20
36.8300
 30
0.0000
 41
1.6764
 42
1.6764
 43
1.0000
 50
180.0000
  0
INSERT
  8
17
  2
SQUAREP
 10
58.4200
 20
34.2900
 30
0.0000
 41
1.6764
 42
1.6764
 43
1.0000
 50
180.0000
  0
INSERT
  8
17
  2
SQUAREP
 10
58.4200
 20
34.2900
 30
0.0000
 41
1.6764
 42
1.6764
 43
1.0000
 50
180.0000
  0
INSERT
  8
17
  2
SQUAREP
 10
58.4200
 20
31.7500
 30
0.0000
 41
1.6764
 42
1.6764
 43
1.0000
 50
180.0000
  0
INSERT
  8
17
  2
SQUAREP
 10
58.4200
 20
31.7500
 30
0.0000
 41
1.6764
 42
1.6764
 43
1.0000
 50
180.0000
  0
INSERT
  8
17
  2
SQUAREP
 10
58.4200
 20
29.2100
 30
0.0000
 41
1.6764
 42
1.6764
 43
1.0000
 50
180.0000
  0
INSERT
  8
17
  2
SQUAREP
 10
58.4200
 20
29.2100
 30
0.0000
 41
1.6764
 42
1.6764
 43
1.0000
 50
180.0000
  0
INSERT
  8
17
  2
SQUAREP
 10
58.4200
 20
26.6700
 30
0.0000
 41
1.6764
 42
1.6764
 43
1.0000
 50
180.0000
  0
INSERT
  8
17
  2
SQUAREP
 10
58.4200
 20
26.6700
 30
0.0000
 41
1.6764
 42
1.6764
 43
1.0000
 50
180.0000
  0
INSERT
  8
17
  2
SQUAREP
 10
58.4200
 20
24.1300
 30
0.0000
 41
1.6764
 42
1.6764
 43
1.0000
 50
180.0000
  0
INSERT
  8
17
  2
SQUAREP
 10
58.4200
 20
24.1300
 30
0.0000
 41
1.6764
 42
1.6764
 43
1.0000
 50
180.0000
  0
INSERT
  8
17
  2
SQUAREP
 10
58.4200
 20
21.5900
 30
0.0000
 41
1.6764
 42
1.6764
 43
1.0000
 50
180.0000
  0
INSERT
  8
17
  2
SQUAREP
 10
58.4200
 20
21.5900
 30
0.0000
 41
1.6764
 42
1.6764
 43
1.0000
 50
180.0000
  0
INSERT
  8
17
  2
SQUAREP
 10
58.4200
 20
19.0500
 30
0.0000
 41
1.6764
 42
1.6764
 43
1.0000
 50
180.0000
  0
INSERT
  8
17
  2
SQUAREP
 10
58.4200
 20
19.0500
 30
0.0000
 41
1.6764
 42
1.6764
 43
1.0000
 50
180.0000
  0
INSERT
  8
17
  2
SQUAREP
 10
58.4200
 20
16.5100
 30
0.0000
 41
1.6764
 42
1.6764
 43
1.0000
 50
180.0000
  0
INSERT
  8
17
  2
SQUAREP
 10
58.4200
 20
16.5100
 30
0.0000
 41
1.6764
 42
1.6764
 43
1.0000
 50
180.0000
  0
INSERT
  8
17
  2
SQUAREP
 10
58.4200
 20
13.9700
 30
0.0000
 41
1.6764
 42
1.6764
 43
1.0000
 50
180.0000
  0
INSERT
  8
17
  2
SQUAREP
 10
58.4200
 20
13.9700
 30
0.0000
 41
1.6764
 42
1.6764
 43
1.0000
 50
180.0000
  0
INSERT
  8
17
  2
SQUAREP
 10
58.4200
 20
11.4300
 30
0.0000
 41
1.6764
 42
1.6764
 43
1.0000
 50
180.0000
  0
INSERT
  8
17
  2
SQUAREP
 10
58.4200
 20
11.4300
 30
0.0000
 41
1.6764
 42
1.6764
 43
1.0000
 50
180.0000
  0
INSERT
  8
17
  2
SQUAREP
 10
58.4200
 20
8.8900
 30
0.0000
 41
1.6764
 42
1.6764
 43
1.0000
 50
180.0000
  0
INSERT
  8
17
  2
SQUAREP
 10
58.4200
 20
8.8900
 30
0.0000
 41
1.6764
 42
1.6764
 43
1.0000
 50
180.0000
  0
INSERT
  8
17
  2
SQUAREP
 10
58.4200
 20
6.3500
 30
0.0000
 41
1.6764
 42
1.6764
 43
1.0000
 50
180.0000
  0
INSERT
  8
17
  2
SQUAREP
 10
58.4200
 20
6.3500
 30
0.0000
 41
1.6764
 42
1.6764
 43
1.0000
 50
180.0000
  0
INSERT
  8
17
  2
SQUAREP
 10
58.4200
 20
3.8100
 30
0.0000
 41
1.6764
 42
1.6764
 43
1.0000
 50
180.0000
  0
INSERT
  8
17
  2
SQUAREP
 10
58.4200
 20
3.8100
 30
0.0000
 41
1.6764
 42
1.6764
 43
1.0000
 50
180.0000
  0
INSERT
  8
17
  2
SQUAREP
 10
83.8200
 20
3.8100
 30
0.0000
 41
1.6764
 42
1.6764
 43
1.0000
 50
180.0000
  0
INSERT
  8
17
  2
SQUAREP
 10
83.8200
 20
3.8100
 30
0.0000
 41
1.6764
 42
1.6764
 43
1.0000
 50
180.0000
  0
INSERT
  8
17
  2
SQUAREP
 10
83.8200
 20
6.3500
 30
0.0000
 41
1.6764
 42
1.6764
 43
1.0000
 50
180.0000
  0
INSERT
  8
17
  2
SQUAREP
 10
83.8200
 20
6.3500
 30
0.0000
 41
1.6764
 42
1.6764
 43
1.0000
 50
180.0000
  0
INSERT
  8
17
  2
SQUAREP
 10
83.8200
 20
8.8900
 30
0.0000
 41
1.6764
 42
1.6764
 43
1.0000
 50
180.0000
  0
INSERT
  8
17
  2
SQUAREP
 10
83.8200
 20
8.8900
 30
0.0000
 41
1.6764
 42
1.6764
 43
1.0000
 50
180.0000
  0
INSERT
  8
17
  2
SQUAREP
 10
83.8200
 20
11.4300
 30
0.0000
 41
1.6764
 42
1.6764
 43
1.0000
 50
180.0000
  0
INSERT
  8
17
  2
SQUAREP
 10
83.8200
 20
11.4300
 30
0.0000
 41
1.6764
 42
1.6764
 43
1.0000
 50
180.0000
  0
INSERT
  8
17
  2
SQUAREP
 10
83.8200
 20
13.9700
 30
0.0000
 41
1.6764
 42
1.6764
 43
1.0000
 50
270.0000
  0
INSERT
  8
17
  2
SQUAREP
 10
83.8200
 20
13.9700
 30
0.0000
 41
1.6764
 42
1.6764
 43
1.0000
 50
270.0000
  0
INSERT
  8
17
  2
SQUAREP
 10
83.8200
 20
16.5100
 30
0.0000
 41
1.6764
 42
1.6764
 43
1.0000
 50
180.0000
  0
INSERT
  8
17
  2
SQUAREP
 10
83.8200
 20
16.5100
 30
0.0000
 41
1.6764
 42
1.6764
 43
1.0000
 50
180.0000
  0
INSERT
  8
17
  2
SQUAREP
 10
83.8200
 20
19.0500
 30
0.0000
 41
1.6764
 42
1.6764
 43
1.0000
 50
180.0000
  0
INSERT
  8
17
  2
SQUAREP
 10
83.8200
 20
19.0500
 30
0.0000
 41
1.6764
 42
1.6764
 43
1.0000
 50
180.0000
  0
INSERT
  8
17
  2
SQUAREP
 10
83.8200
 20
21.5900
 30
0.0000
 41
1.6764
 42
1.6764
 43
1.0000
 50
180.0000
  0
INSERT
  8
17
  2
SQUAREP
 10
83.8200
 20
21.5900
 30
0.0000
 41
1.6764
 42
1.6764
 43
1.0000
 50
180.0000
  0
INSERT
  8
17
  2
SQUAREP
 10
83.8200
 20
24.1300
 30
0.0000
 41
1.6764
 42
1.6764
 43
1.0000
 50
180.0000
  0
INSERT
  8
17
  2
SQUAREP
 10
83.8200
 20
24.1300
 30
0.0000
 41
1.6764
 42
1.6764
 43
1.0000
 50
180.0000
  0
INSERT
  8
17
  2
SQUAREP
 10
83.8200
 20
26.6700
 30
0.0000
 41
1.6764
 42
1.6764
 43
1.0000
 50
180.0000
  0
INSERT
  8
17
  2
SQUAREP
 10
83.8200
 20
26.6700
 30
0.0000
 41
1.6764
 42
1.6764
 43
1.0000
 50
180.0000
  0
INSERT
  8
17
  2
SQUAREP
 10
83.8200
 20
29.2100
 30
0.0000
 41
1.6764
 42
1.6764
 43
1.0000
 50
180.0000
  0
INSERT
  8
17
  2
SQUAREP
 10
83.8200
 20
29.2100
 30
0.0000
 41
1.6764
 42
1.6764
 43
1.0000
 50
180.0000
  0
INSERT
  8
17
  2
SQUAREP
 10
83.8200
 20
31.7500
 30
0.0000
 41
1.6764
 42
1.6764
 43
1.0000
 50
180.0000
  0
INSERT
  8
17
  2
SQUAREP
 10
83.8200
 20
31.7500
 30
0.0000
 41
1.6764
 42
1.6764
 43
1.0000
 50
180.0000
  0
INSERT
  8
17
  2
SQUAREP
 10
83.8200
 20
34.2900
 30
0.0000
 41
1.6764
 42
1.6764
 43
1.0000
 50
180.0000
  0
INSERT
  8
17
  2
SQUAREP
 10
83.8200
 20
34.2900
 30
0.0000
 41
1.6764
 42
1.6764
 43
1.0000
 50
180.0000
  0
INSERT
  8
17
  2
SQUAREP
 10
83.8200
 20
36.8300
 30
0.0000
 41
1.6764
 42
1.6764
 43
1.0000
 50
180.0000
  0
INSERT
  8
17
  2
SQUAREP
 10
83.8200
 20
36.8300
 30
0.0000
 41
1.6764
 42
1.6764
 43
1.0000
 50
180.0000
  0
INSERT
  8
17
  2
SQUAREP
 10
83.8200
 20
39.3700
 30
0.0000
 41
1.6764
 42
1.6764
 43
1.0000
 50
180.0000
  0
INSERT
  8
17
  2
SQUAREP
 10
83.8200
 20
39.3700
 30
0.0000
 41
1.6764
 42
1.6764
 43
1.0000
 50
180.0000
  0
POINT
  8
23
 10
5.0800
 20
29.2100
 30
0.0000
  0
POLYLINE
  8
21
 66
1
 10
0.0000
 20
0.0000
 30
0.0000
 40
0.1524
 41
0.1524
 70
0
  0
VERTEX
  8
21
 10
3.8100
 20
30.4800
 30
0.0000
  0
VERTEX
  8
21
 10
3.8100
 20
27.9400
 30
0.0000
  0
SEQEND
  8
0
  0
POLYLINE
  8
21
 66
1
 10
0.0000
 20
0.0000
 30
0.0000
 40
0.0762
 41
0.0762
 70
0
  0
VERTEX
  8
21
 10
3.7719
 20
27.9400
 30
0.0000
 42
1.0000
  0
VERTEX
  8
21
 10
3.8481
 20
27.9400
 30
0.0000
  0
SEQEND
  8
0
  0
POLYLINE
  8
21
 66
1
 10
0.0000
 20
0.0000
 30
0.0000
 40
0.0762
 41
0.0762
 70
0
  0
VERTEX
  8
21
 10
3.8481
 20
30.4800
 30
0.0000
 42
1.0000
  0
VERTEX
  8
21
 10
3.7719
 20
30.4800
 30
0.0000
  0
SEQEND
  8
0
  0
POLYLINE
  8
21
 66
1
 10
0.0000
 20
0.0000
 30
0.0000
 40
0.1524
 41
0.1524
 70
0
  0
VERTEX
  8
21
 10
3.8100
 20
27.9400
 30
0.0000
  0
VERTEX
  8
21
 10
10.1600
 20
27.9400
 30
0.0000
  0
SEQEND
  8
0
  0
POLYLINE
  8
21
 66
1
 10
0.0000
 20
0.0000
 30
0.0000
 40
0.0762
 41
0.0762
 70
0
  0
VERTEX
  8
21
 10
10.1600
 20
27.9019
 30
0.0000
 42
1.0000
  0
VERTEX
  8
21
 10
10.1600
 20
27.9781
 30
0.0000
  0
SEQEND
  8
0
  0
POLYLINE
  8
21
 66
1
 10
0.0000
 20
0.0000
 30
0.0000
 40
0.0762
 41
0.0762
 70
0
  0
VERTEX
  8
21
 10
3.8100
 20
27.9781
 30
0.0000
 42
1.0000
  0
VERTEX
  8
21
 10
3.8100
 20
27.9019
 30
0.0000
  0
SEQEND
  8
0
  0
POLYLINE
  8
21
 66
1
 10
0.0000
 20
0.0000
 30
0.0000
 40
0.1524
 41
0.1524
 70
0
  0
VERTEX
  8
21
 10
10.1600
 20
30.4800
 30
0.0000
  0
VERTEX
  8
21
 10
3.8100
 20
30.4800
 30
0.0000
  0
SEQEND
  8
0
  0
POLYLINE
  8
21
 66
1
 10
0.0000
 20
0.0000
 30
0.0000
 40
0.0762
 41
0.0762
 70
0
  0
VERTEX
  8
21
 10
3.8100
 20
30.5181
 30
0.0000
 42
1.0000
  0
VERTEX
  8
21
 10
3.8100
 20
30.4419
 30
0.0000
  0
SEQEND
  8
0
  0
POLYLINE
  8
21
 66
1
 10
0.0000
 20
0.0000
 30
0.0000
 40
0.0762
 41
0.0762
 70
0
  0
VERTEX
  8
21
 10
10.1600
 20
30.4419
 30
0.0000
 42
1.0000
  0
VERTEX
  8
21
 10
10.1600
 20
30.5181
 30
0.0000
  0
SEQEND
  8
0
  0
POLYLINE
  8
21
 66
1
 10
0.0000
 20
0.0000
 30
0.0000
 40
0.1524
 41
0.1524
 70
0
  0
VERTEX
  8
21
 10
2.5400
 20
26.6700
 30
0.0000
  0
VERTEX
  8
21
 10
11.4300
 20
26.6700
 30
0.0000
  0
SEQEND
  8
0
  0
POLYLINE
  8
21
 66
1
 10
0.0000
 20
0.0000
 30
0.0000
 40
0.0762
 41
0.0762
 70
0
  0
VERTEX
  8
21
 10
11.4300
 20
26.6319
 30
0.0000
 42
1.0000
  0
VERTEX
  8
21
 10
11.4300
 20
26.7081
 30
0.0000
  0
SEQEND
  8
0
  0
POLYLINE
  8
21
 66
1
 10
0.0000
 20
0.0000
 30
0.0000
 40
0.0762
 41
0.0762
 70
0
  0
VERTEX
  8
21
 10
2.5400
 20
26.7081
 30
0.0000
 42
1.0000
  0
VERTEX
  8
21
 10
2.5400
 20
26.6319
 30
0.0000
  0
SEQEND
  8
0
  0
POLYLINE
  8
21
 66
1
 10
0.0000
 20
0.0000
 30
0.0000
 40
0.1524
 41
0.1524
 70
0
  0
VERTEX
  8
21
 10
11.4300
 20
36.8300
 30
0.0000
  0
VERTEX
  8
21
 10
2.5400
 20
36.8300
 30
0.0000
  0
SEQEND
  8
0
  0
POLYLINE
  8
21
 66
1
 10
0.0000
 20
0.0000
 30
0.0000
 40
0.0762
 41
0.0762
 70
0
  0
VERTEX
  8
21
 10
2.5400
 20
36.8681
 30
0.0000
 42
1.0000
  0
VERTEX
  8
21
 10
2.5400
 20
36.7919
 30
0.0000
  0
SEQEND
  8
0
  0
POLYLINE
  8
21
 66
1
 10
0.0000
 20
0.0000
 30
0.0000
 40
0.0762
 41
0.0762
 70
0
  0
VERTEX
  8
21
 10
11.4300
 20
36.7919
 30
0.0000
 42
1.0000
  0
VERTEX
  8
21
 10
11.4300
 20
36.8681
 30
0.0000
  0
SEQEND
  8
0
  0
POLYLINE
  8
21
 66
1
 10
0.0000
 20
0.0000
 30
0.0000
 40
0.1524
 41
0.1524
 70
0
  0
VERTEX
  8
21
 10
2.5400
 20
36.8300
 30
0.0000
  0
VERTEX
  8
21
 10
2.5400
 20
26.6700
 30
0.0000
  0
SEQEND
  8
0
  0
POLYLINE
  8
21
 66
1
 10
0.0000
 20
0.0000
 30
0.0000
 40
0.0762
 41
0.0762
 70
0
  0
VERTEX
  8
21
 10
2.5019
 20
26.6700
 30
0.0000
 42
1.0000
  0
VERTEX
  8
21
 10
2.5781
 20
26.6700
 30
0.0000
  0
SEQEND
  8
0
  0
POLYLINE
  8
21
 66
1
 10
0.0000
 20
0.0000
 30
0.0000
 40
0.0762
 41
0.0762
 70
0
  0
VERTEX
  8
21
 10
2.5781
 20
36.8300
 30
0.0000
 42
1.0000
  0
VERTEX
  8
21
 10
2.5019
 20
36.8300
 30
0.0000
  0
SEQEND
  8
0
  0
POLYLINE
  8
21
 66
1
 10
0.0000
 20
0.0000
 30
0.0000
 40
0.1524
 41
0.1524
 70
0
  0
VERTEX
  8
21
 10
11.4300
 20
36.8300
 30
0.0000
  0
VERTEX
  8
21
 10
11.4300
 20
26.6700
 30
0.0000
  0
SEQEND
  8
0
  0
POLYLINE
  8
21
 66
1
 10
0.0000
 20
0.0000
 30
0.0000
 40
0.0762
 41
0.0762
 70
0
  0
VERTEX
  8
21
 10
11.3919
 20
26.6700
 30
0.0000
 42
1.0000
  0
VERTEX
  8
21
 10
11.4681
 20
26.6700
 30
0.0000
  0
SEQEND
  8
0
  0
POLYLINE
  8
21
 66
1
 10
0.0000
 20
0.0000
 30
0.0000
 40
0.0762
 41
0.0762
 70
0
  0
VERTEX
  8
21
 10
11.4681
 20
36.8300
 30
0.0000
 42
1.0000
  0
VERTEX
  8
21
 10
11.3919
 20
36.8300
 30
0.0000
  0
SEQEND
  8
0
  0
POLYLINE
  8
21
 66
1
 10
0.0000
 20
0.0000
 30
0.0000
 40
0.1524
 41
0.1524
 70
0
  0
VERTEX
  8
21
 10
10.1600
 20
27.9400
 30
0.0000
  0
VERTEX
  8
21
 10
10.1600
 20
30.4800
 30
0.0000
  0
SEQEND
  8
0
  0
POLYLINE
  8
21
 66
1
 10
0.0000
 20
0.0000
 30
0.0000
 40
0.0762
 41
0.0762
 70
0
  0
VERTEX
  8
21
 10
10.1981
 20
30.4800
 30
0.0000
 42
1.0000
  0
VERTEX
  8
21
 10
10.1219
 20
30.4800
 30
0.0000
  0
SEQEND
  8
0
  0
POLYLINE
  8
21
 66
1
 10
0.0000
 20
0.0000
 30
0.0000
 40
0.0762
 41
0.0762
 70
0
  0
VERTEX
  8
21
 10
10.1219
 20
27.9400
 30
0.0000
 42
1.0000
  0
VERTEX
  8
21
 10
10.1981
 20
27.9400
 30
0.0000
  0
SEQEND
  8
0
  0
INSERT
  8
17
  2
SQUAREP
 10
5.0800
 20
29.2100
 30
0.0000
 41
1.9500
 42
1.9500
 43
1.0000
 50
270.0000
  0
INSERT
  8
17
  2
SQUAREP
 10
5.0800
 20
29.2100
 30
0.0000
 41
1.9500
 42
1.9500
 43
1.0000
 50
270.0000
  0
INSERT
  8
17
  2
SQUAREP
 10
8.8900
 20
29.2100
 30
0.0000
 41
1.9500
 42
1.9500
 43
1.0000
 50
270.0000
  0
INSERT
  8
17
  2
SQUAREP
 10
8.8900
 20
29.2100
 30
0.0000
 41
1.9500
 42
1.9500
 43
1.0000
 50
270.0000
  0
POLYLINE
  8
16
 66
1
 10
0.0000
 20
0.0000
 30
0.0000
 40
1.2700
 41
1.2700
 70
0
  0
VERTEX
  8
16
 10
83.8200
 20
29.2100
 30
0.0000
  0
VERTEX
  8
16
 10
76.2000
 20
29.2100
 30
0.0000
  0
SEQEND
  8
0
  0
POLYLINE
  8
16
 66
1
 10
0.0000
 20
0.0000
 30
0.0000
 40
0.6350
 41
0.6350
 70
0
  0
VERTEX
  8
16
 10
76.2000
 20
29.5275
 30
0.0000
 42
1.0000
  0
VERTEX
  8
16
 10
76.2000
 20
28.8925
 30
0.0000
  0
SEQEND
  8
0
  0
POLYLINE
  8
16
 66
1
 10
0.0000
 20
0.0000
 30
0.0000
 40
0.6350
 41
0.6350
 70
0
  0
VERTEX
  8
16
 10
83.8200
 20
28.8925
 30
0.0000
 42
1.0000
  0
VERTEX
  8
16
 10
83.8200
 20
29.5275
 30
0.0000
  0
SEQEND
  8
0
  0
POLYLINE
  8
16
 66
1
 10
0.0000
 20
0.0000
 30
0.0000
 40
1.2700
 41
1.2700
 70
0
  0
VERTEX
  8
16
 10
76.2000
 20
29.2100
 30
0.0000
  0
VERTEX
  8
16
 10
76.2000
 20
62.2300
 30
0.0000
  0
SEQEND
  8
0
  0
POLYLINE
  8
16
 66
1
 10
0.0000
 20
0.0000
 30
0.0000
 40
0.6350
 41
0.6350
 70
0
  0
VERTEX
  8
16
 10
76.5175
 20
62.2300
 30
0.0000
 42
1.0000
  0
VERTEX
  8
16
 10
75.8825
 20
62.2300
 30
0.0000
  0
SEQEND
  8
0
  0
POLYLINE
  8
16
 66
1
 10
0.0000
 20
0.0000
 30
0.0000
 40
0.6350
 41
0.6350
 70
0
  0
VERTEX
  8
16
 10
75.8825
 20
29.2100
 30
0.0000
 42
1.0000
  0
VERTEX
  8
16
 10
76.5175
 20
29.2100
 30
0.0000
  0
SEQEND
  8
0
  0
POLYLINE
  8
16
 66
1
 10
0.0000
 20
0.0000
 30
0.0000
 40
1.2700
 41
1.2700
 70
0
  0
VERTEX
  8
16
 10
76.2000
 20
62.2300
 30
0.0000
  0
VERTEX
  8
16
 10
60.9600
 20
62.2300
 30
0.0000
  0
SEQEND
  8
0
  0
POLYLINE
  8
16
 66
1
 10
0.0000
 20
0.0000
 30
0.0000
 40
0.6350
 41
0.6350
 70
0
  0
VERTEX
  8
16
 10
60.9600
 20
62.5475
 30
0.0000
 42
1.0000
  0
VERTEX
  8
16
 10
60.9600
 20
61.9125
 30
0.0000
  0
SEQEND
  8
0
  0
POLYLINE
  8
16
 66
1
 10
0.0000
 20
0.0000
 30
0.0000
 40
0.6350
 41
0.6350
 70
0
  0
VERTEX
  8
16
 10
76.2000
 20
61.9125
 30
0.0000
 42
1.0000
  0
VERTEX
  8
16
 10
76.2000
 20
62.5475
 30
0.0000
  0
SEQEND
  8
0
  0
POLYLINE
  8
16
 66
1
 10
0.0000
 20
0.0000
 30
0.0000
 40
1.2700
 41
1.2700
 70
0
  0
VERTEX
  8
16
 10
8.8900
 20
29.2100
 30
0.0000
  0
VERTEX
  8
16
 10
8.8900
 20
36.8300
 30
0.0000
  0
SEQEND
  8
0
  0
POLYLINE
  8
16
 66
1
 10
0.0000
 20
0.0000
 30
0.0000
 40
0.6350
 41
0.6350
 70
0
  0
VERTEX
  8
16
 10
9.2075
 20
36.8300
 30
0.0000
 42
1.0000
  0
VERTEX
  8
16
 10
8.5725
 20
36.8300
 30
0.0000
  0
SEQEND
  8
0
  0
POLYLINE
  8
16
 66
1
 10
0.0000
 20
0.0000
 30
0.0000
 40
0.6350
 41
0.6350
 70
0
  0
VERTEX
  8
16
 10
8.5725
 20
29.2100
 30
0.0000
 42
1.0000
  0
VERTEX
  8
16
 10
9.2075
 20
29.2100
 30
0.0000
  0
SEQEND
  8
0
  0
POLYLINE
  8
16
 66
1
 10
0.0000
 20
0.0000
 30
0.0000
 40
1.2700
 41
1.2700
 70
0
  0
VERTEX
  8
16
 10
55.8800
 20
36.8300
 30
0.0000
  0
VERTEX
  8
16
 10
55.8800
 20
54.6100
 30
0.0000
  0
SEQEND
  8
0
  0
POLYLINE
  8
16
 66
1
 10
0.0000
 20
0.0000
 30
0.0000
 40
0.6350
 41
0.6350
 70
0
  0
VERTEX
  8
16
 10
56.1975
 20
54.6100
 30
0.0000
 42
1.0000
  0
VERTEX
  8
16
 10
55.5625
 20
54.6100
 30
0.0000
  0
SEQEND
  8
0
  0
POLYLINE
  8
16
 66
1
 10
0.0000
 20
0.0000
 30
0.0000
 40
0.6350
 41
0.6350
 70
0
  0
VERTEX
  8
16
 10
55.5625
 20
36.8300
 30
0.0000
 42
1.0000
  0
VERTEX
  8
16
 10
56.1975
 20
36.8300
 30
0.0000
  0
SEQEND
  8
0
  0
POLYLINE
  8
16
 66
1
 10
0.0000
 20
0.0000
 30
0.0000
 40
1.2700
 41
1.2700
 70
0
  0
VERTEX
  8
16
 10
55.8800
 20
54.6100
 30
0.0000
  0
VERTEX
  8
16
 10
60.9600
 20
54.6100
 30
0.0000
  0
SEQEND
  8
0
  0
POLYLINE
  8
16
 66
1
 10
0.0000
 20
0.0000
 30
0.0000
 40
0.6350
 41
0.6350
 70
0
  0
VERTEX
  8
16
 10
60.9600
 20
54.2925
 30
0.0000
 42
1.0000
  0
VERTEX
  8
16
 10
60.9600
 20
54.9275
 30
0.0000
  0
SEQEND
  8
0
  0
POLYLINE
  8
16
 66
1
 10
0.0000
 20
0.0000
 30
0.0000
 40
0.6350
 41
0.6350
 70
0
  0
VERTEX
  8
16
 10
55.8800
 20
54.9275
 30
0.0000
 42
1.0000
  0
VERTEX
  8
16
 10
55.8800
 20
54.2925
 30
0.0000
  0
SEQEND
  8
0
  0
POLYLINE
  8
16
 66
1
 10
0.0000
 20
0.0000
 30
0.0000
 40
1.2700
 41
1.2700
 70
0
  0
VERTEX
  8
16
 10
8.8900
 20
36.8300
 30
0.0000
  0
VERTEX
  8
16
 10
55.8800
 20
36.8300
 30
0.0000
  0
SEQEND
  8
0
  0
POLYLINE
  8
16
 66
1
 10
0.0000
 20
0.0000
 30
0.0000
 40
0.6350
 41
0.6350
 70
0
  0
VERTEX
  8
16
 10
55.8800
 20
36.5125
 30
0.0000
 42
1.0000
  0
VERTEX
  8
16
 10
55.8800
 20
37.1475
 30
0.0000
  0
SEQEND
  8
0
  0
POLYLINE
  8
16
 66
1
 10
0.0000
 20
0.0000
 30
0.0000
 40
0.6350
 41
0.6350
 70
0
  0
VERTEX
  8
16
 10
8.8900
 20
37.1475
 30
0.0000
 42
1.0000
  0
VERTEX
  8
16
 10
8.8900
 20
36.5125
 30
0.0000
  0
SEQEND
  8
0
  0
POLYLINE
  8
16
 66
1
 10
0.0000
 20
0.0000
 30
0.0000
 40
1.2700
 41
1.2700
 70
0
  0
VERTEX
  8
16
 10
60.9600
 20
54.6100
 30
0.0000
  0
VERTEX
  8
16
 10
72.3900
 20
54.6100
 30
0.0000
  0
SEQEND
  8
0
  0
POLYLINE
  8
16
 66
1
 10
0.0000
 20
0.0000
 30
0.0000
 40
0.6350
 41
0.6350
 70
0
  0
VERTEX
  8
16
 10
72.3900
 20
54.2925
 30
0.0000
 42
1.0000
  0
VERTEX
  8
16
 10
72.3900
 20
54.9275
 30
0.0000
  0
SEQEND
  8
0
  0
POLYLINE
  8
16
 66
1
 10
0.0000
 20
0.0000
 30
0.0000
 40
0.6350
 41
0.6350
 70
0
  0
VERTEX
  8
16
 10
60.9600
 20
54.9275
 30
0.0000
 42
1.0000
  0
VERTEX
  8
16
 10
60.9600
 20
54.2925
 30
0.0000
  0
SEQEND
  8
0
  0
POLYLINE
  8
16
 66
1
 10
0.0000
 20
0.0000
 30
0.0000
 40
1.2700
 41
1.2700
 70
0
  0
VERTEX
  8
16
 10
83.8200
 20
36.8300
 30
0.0000
  0
VERTEX
  8
16
 10
86.3600
 20
36.8300
 30
0.0000
  0
SEQEND
  8
0
  0
POLYLINE
  8
16
 66
1
 10
0.0000
 20
0.0000
 30
0.0000
 40
0.6350
 41
0.6350
 70
0
  0
VERTEX
  8
16
 10
86.3600
 20
36.5125
 30
0.0000
 42
1.0000
  0
VERTEX
  8
16
 10
86.3600
 20
37.1475
 30
0.0000
  0
SEQEND
  8
0
  0
POLYLINE
  8
16
 66
1
 10
0.0000
 20
0.0000
 30
0.0000
 40
0.6350
 41
0.6350
 70
0
  0
VERTEX
  8
16
 10
83.8200
 20
37.1475
 30
0.0000
 42
1.0000
  0
VERTEX
  8
16
 10
83.8200
 20
36.5125
 30
0.0000
  0
SEQEND
  8
0
  0
POLYLINE
  8
16
 66
1
 10
0.0000
 20
0.0000
 30
0.0000
 40
1.2700
 41
1.2700
 70
0
  0
VERTEX
  8
16
 10
86.3600
 20
36.8300
 30
0.0000
  0
VERTEX
  8
16
 10
86.3600
 20
1.7272
 30
0.0000
  0
SEQEND
  8
0
  0
POLYLINE
  8
16
 66
1
 10
0.0000
 20
0.0000
 30
0.0000
 40
0.6350
 41
0.6350
 70
0
  0
VERTEX
  8
16
 10
86.0425
 20
1.7272
 30
0.0000
 42
1.0000
  0
VERTEX
  8
16
 10
86.6775
 20
1.7272
 30
0.0000
  0
SEQEND
  8
0
  0
POLYLINE
  8
16
 66
1
 10
0.0000
 20
0.0000
 30
0.0000
 40
0.6350
 41
0.6350
 70
0
  0
VERTEX
  8
16
 10
86.6775
 20
36.8300
 30
0.0000
 42
1.0000
  0
VERTEX
  8
16
 10
86.0425
 20
36.8300
 30
0.0000
  0
SEQEND
  8
0
  0
POLYLINE
  8
16
 66
1
 10
0.0000
 20
0.0000
 30
0.0000
 40
1.2700
 41
1.2700
 70
0
  0
VERTEX
  8
16
 10
86.3600
 20
1.7272
 30
0.0000
  0
VERTEX
  8
16
 10
72.3900
 20
1.7272
 30
0.0000
  0
SEQEND
  8
0
  0
POLYLINE
  8
16
 66
1
 10
0.0000
 20
0.0000
 30
0.0000
 40
0.6350
 41
0.6350
 70
0
  0
VERTEX
  8
16
 10
72.3900
 20
2.0447
 30
0.0000
 42
1.0000
  0
VERTEX
  8
16
 10
72.3900
 20
1.4097
 30
0.0000
  0
SEQEND
  8
0
  0
POLYLINE
  8
16
 66
1
 10
0.0000
 20
0.0000
 30
0.0000
 40
0.6350
 41
0.6350
 70
0
  0
VERTEX
  8
16
 10
86.3600
 20
1.4097
 30
0.0000
 42
1.0000
  0
VERTEX
  8
16
 10
86.3600
 20
2.0447
 30
0.0000
  0
SEQEND
  8
0
  0
POLYLINE
  8
16
 66
1
 10
0.0000
 20
0.0000
 30
0.0000
 40
1.2700
 41
1.2700
 70
0
  0
VERTEX
  8
16
 10
72.3900
 20
54.6100
 30
0.0000
  0
VERTEX
  8
16
 10
72.3900
 20
1.7272
 30
0.0000
  0
SEQEND
  8
0
  0
POLYLINE
  8
16
 66
1
 10
0.0000
 20
0.0000
 30
0.0000
 40
0.6350
 41
0.6350
 70
0
  0
VERTEX
  8
16
 10
72.0725
 20
1.7272
 30
0.0000
 42
1.0000
  0
VERTEX
  8
16
 10
72.7075
 20
1.7272
 30
0.0000
  0
SEQEND
  8
0
  0
POLYLINE
  8
16
 66
1
 10
0.0000
 20
0.0000
 30
0.0000
 40
0.6350
 41
0.6350
 70
0
  0
VERTEX
  8
16
 10
72.7075
 20
54.6100
 30
0.0000
 42
1.0000
  0
VERTEX
  8
16
 10
72.0725
 20
54.6100
 30
0.0000
  0
SEQEND
  8
0
  0
POLYLINE
  8
16
 66
1
 10
0.0000
 20
0.0000
 30
0.0000
 40
1.2700
 41
1.2700
 70
0
  0
VERTEX
  8
16
 10
80.0100
 20
54.6100
 30
0.0000
  0
VERTEX
  8
16
 10
80.0100
 20
34.2900
 30
0.0000
  0
SEQEND
  8
0
  0
POLYLINE
  8
16
 66
1
 10
0.0000
 20
0.0000
 30
0.0000
 40
0.6350
 41
0.6350
 70
0
  0
VERTEX
  8
16
 10
79.6925
 20
34.2900
 30
0.0000
 42
1.0000
  0
VERTEX
  8
16
 10
80.3275
 20
34.2900
 30
0.0000
  0
SEQEND
  8
0
  0
POLYLINE
  8
16
 66
1
 10
0.0000
 20
0.0000
 30
0.0000
 40
0.6350
 41
0.6350
 70
0
  0
VERTEX
  8
16
 10
80.3275
 20
54.6100
 30
0.0000
 42
1.0000
  0
VERTEX
  8
16
 10
79.6925
 20
54.6100
 30
0.0000
  0
SEQEND
  8
0
  0
POLYLINE
  8
16
 66
1
 10
0.0000
 20
0.0000
 30
0.0000
 40
1.2700
 41
1.2700
 70
0
  0
VERTEX
  8
16
 10
80.0100
 20
34.2900
 30
0.0000
  0
VERTEX
  8
16
 10
83.8200
 20
34.2900
 30
0.0000
  0
SEQEND
  8
0
  0
POLYLINE
  8
16
 66
1
 10
0.0000
 20
0.0000
 30
0.0000
 40
0.6350
 41
0.6350
 70
0
  0
VERTEX
  8
16
 10
83.8200
 20
33.9725
 30
0.0000
 42
1.0000
  0
VERTEX
  8
16
 10
83.8200
 20
34.6075
 30
0.0000
  0
SEQEND
  8
0
  0
POLYLINE
  8
16
 66
1
 10
0.0000
 20
0.0000
 30
0.0000
 40
0.6350
 41
0.6350
 70
0
  0
VERTEX
  8
16
 10
80.0100
 20
34.6075
 30
0.0000
 42
1.0000
  0
VERTEX
  8
16
 10
80.0100
 20
33.9725
 30
0.0000
  0
SEQEND
  8
0
  0
POLYLINE
  8
16
 66
1
 10
0.0000
 20
0.0000
 30
0.0000
 40
1.2700
 41
1.2700
 70
0
  0
VERTEX
  8
16
 10
5.0800
 20
29.2100
 30
0.0000
  0
VERTEX
  8
16
 10
5.0800
 20
39.3700
 30
0.0000
  0
SEQEND
  8
0
  0
POLYLINE
  8
16
 66
1
 10
0.0000
 20
0.0000
 30
0.0000
 40
0.6350
 41
0.6350
 70
0
  0
VERTEX
  8
16
 10
5.3975
 20
39.3700
 30
0.0000
 42
1.0000
  0
VERTEX
  8
16
 10
4.7625
 20
39.3700
 30
0.0000
  0
SEQEND
  8
0
  0
POLYLINE
  8
16
 66
1
 10
0.0000
 20
0.0000
 30
0.0000
 40
0.6350
 41
0.6350
 70
0
  0
VERTEX
  8
16
 10
4.7625
 20
29.2100
 30
0.0000
 42
1.0000
  0
VERTEX
  8
16
 10
5.3975
 20
29.2100
 30
0.0000
  0
SEQEND
  8
0
  0
POLYLINE
  8
16
 66
1
 10
0.0000
 20
0.0000
 30
0.0000
 40
1.2700
 41
1.2700
 70
0
  0
VERTEX
  8
16
 10
5.0800
 20
39.3700
 30
0.0000
  0
VERTEX
  8
16
 10
53.3400
 20
39.3700
 30
0.0000
  0
SEQEND
  8
0
  0
POLYLINE
  8
16
 66
1
 10
0.0000
 20
0.0000
 30
0.0000
 40
0.6350
 41
0.6350
 70
0
  0
VERTEX
  8
16
 10
53.3400
 20
39.0525
 30
0.0000
 42
1.0000
  0
VERTEX
  8
16
 10
53.3400
 20
39.6875
 30
0.0000
  0
SEQEND
  8
0
  0
POLYLINE
  8
16
 66
1
 10
0.0000
 20
0.0000
 30
0.0000
 40
0.6350
 41
0.6350
 70
0
  0
VERTEX
  8
16
 10
5.0800
 20
39.6875
 30
0.0000
 42
1.0000
  0
VERTEX
  8
16
 10
5.0800
 20
39.0525
 30
0.0000
  0
SEQEND
  8
0
  0
POLYLINE
  8
16
 66
1
 10
0.0000
 20
0.0000
 30
0.0000
 40
1.2700
 41
1.2700
 70
0
  0
VERTEX
  8
16
 10
53.3400
 20
39.3700
 30
0.0000
  0
VERTEX
  8
16
 10
53.3400
 20
66.0400
 30
0.0000
  0
SEQEND
  8
0
  0
POLYLINE
  8
16
 66
1
 10
0.0000
 20
0.0000
 30
0.0000
 40
0.6350
 41
0.6350
 70
0
  0
VERTEX
  8
16
 10
53.6575
 20
66.0400
 30
0.0000
 42
1.0000
  0
VERTEX
  8
16
 10
53.0225
 20
66.0400
 30
0.0000
  0
SEQEND
  8
0
  0
POLYLINE
  8
16
 66
1
 10
0.0000
 20
0.0000
 30
0.0000
 40
0.6350
 41
0.6350
 70
0
  0
VERTEX
  8
16
 10
53.0225
 20
39.3700
 30
0.0000
 42
1.0000
  0
VERTEX
  8
16
 10
53.6575
 20
39.3700
 30
0.0000
  0
SEQEND
  8
0
  0
POLYLINE
  8
16
 66
1
 10
0.0000
 20
0.0000
 30
0.0000
 40
1.2700
 41
1.2700
 70
0
  0
VERTEX
  8
16
 10
53.3400
 20
66.0400
 30
0.0000
  0
VERTEX
  8
16
 10
60.9600
 20
66.0400
 30
0.0000
  0
SEQEND
  8
0
  0
POLYLINE
  8
16
 66
1
 10
0.0000
 20
0.0000
 30
0.0000
 40
0.6350
 41
0.6350
 70
0
  0
VERTEX
  8
16
 10
60.9600
 20
65.7225
 30
0.0000
 42
1.0000
  0
VERTEX
  8
16
 10
60.9600
 20
66.3575
 30
0.0000
  0
SEQEND
  8
0
  0
POLYLINE
  8
16
 66
1
 10
0.0000
 20
0.0000
 30
0.0000
 40
0.6350
 41
0.6350
 70
0
  0
VERTEX
  8
16
 10
53.3400
 20
66.3575
 30
0.0000
 42
1.0000
  0
VERTEX
  8
16
 10
53.3400
 20
65.7225
 30
0.0000
  0
SEQEND
  8
0
  0
POLYLINE
  8
16
 66
1
 10
0.0000
 20
0.0000
 30
0.0000
 40
1.2700
 41
1.2700
 70
0
  0
VERTEX
  8
16
 10
83.8200
 20
39.3700
 30
0.0000
  0
VERTEX
  8
16
 10
83.8200
 20
54.6100
 30
0.0000
  0
SEQEND
  8
0
  0
POLYLINE
  8
16
 66
1
 10
0.0000
 20
0.0000
 30
0.0000
 40
0.6350
 41
0.6350
 70
0
  0
VERTEX
  8
16
 10
84.1375
 20
54.6100
 30
0.0000
 42
1.0000
  0
VERTEX
  8
16
 10
83.5025
 20
54.6100
 30
0.0000
  0
SEQEND
  8
0
  0
POLYLINE
  8
16
 66
1
 10
0.0000
 20
0.0000
 30
0.0000
 40
0.6350
 41
0.6350
 70
0
  0
VERTEX
  8
16
 10
83.5025
 20
39.3700
 30
0.0000
 42
1.0000
  0
VERTEX
  8
16
 10
84.1375
 20
39.3700
 30
0.0000
  0
SEQEND
  8
0
  0
POLYLINE
  8
16
 66
1
 10
0.0000
 20
0.0000
 30
0.0000
 40
1.2700
 41
1.2700
 70
0
  0
VERTEX
  8
16
 10
83.8200
 20
54.6100
 30
0.0000
  0
VERTEX
  8
16
 10
83.8200
 20
62.2300
 30
0.0000
  0
SEQEND
  8
0
  0
POLYLINE
  8
16
 66
1
 10
0.0000
 20
0.0000
 30
0.0000
 40
0.6350
 41
0.6350
 70
0
  0
VERTEX
  8
16
 10
84.1375
 20
62.2300
 30
0.0000
 42
1.0000
  0
VERTEX
  8
16
 10
83.5025
 20
62.2300
 30
0.0000
  0
SEQEND
  8
0
  0
POLYLINE
  8
16
 66
1
 10
0.0000
 20
0.0000
 30
0.0000
 40
0.6350
 41
0.6350
 70
0
  0
VERTEX
  8
16
 10
83.5025
 20
54.6100
 30
0.0000
 42
1.0000
  0
VERTEX
  8
16
 10
84.1375
 20
54.6100
 30
0.0000
  0
SEQEND
  8
0
  0
POLYLINE
  8
16
 66
1
 10
0.0000
 20
0.0000
 30
0.0000
 40
1.2700
 41
1.2700
 70
0
  0
VERTEX
  8
16
 10
78.7400
 20
62.2300
 30
0.0000
  0
VERTEX
  8
16
 10
78.7400
 20
66.0400
 30
0.0000
  0
SEQEND
  8
0
  0
POLYLINE
  8
16
 66
1
 10
0.0000
 20
0.0000
 30
0.0000
 40
0.6350
 41
0.6350
 70
0
  0
VERTEX
  8
16
 10
79.0575
 20
66.0400
 30
0.0000
 42
1.0000
  0
VERTEX
  8
16
 10
78.4225
 20
66.0400
 30
0.0000
  0
SEQEND
  8
0
  0
POLYLINE
  8
16
 66
1
 10
0.0000
 20
0.0000
 30
0.0000
 40
0.6350
 41
0.6350
 70
0
  0
VERTEX
  8
16
 10
78.4225
 20
62.2300
 30
0.0000
 42
1.0000
  0
VERTEX
  8
16
 10
79.0575
 20
62.2300
 30
0.0000
  0
SEQEND
  8
0
  0
POLYLINE
  8
16
 66
1
 10
0.0000
 20
0.0000
 30
0.0000
 40
1.2700
 41
1.2700
 70
0
  0
VERTEX
  8
16
 10
78.7400
 20
66.0400
 30
0.0000
  0
VERTEX
  8
16
 10
60.9600
 20
66.0400
 30
0.0000
  0
SEQEND
  8
0
  0
POLYLINE
  8
16
 66
1
 10
0.0000
 20
0.0000
 30
0.0000
 40
0.6350
 41
0.6350
 70
0
  0
VERTEX
  8
16
 10
60.9600
 20
66.3575
 30
0.0000
 42
1.0000
  0
VERTEX
  8
16
 10
60.9600
 20
65.7225
 30
0.0000
  0
SEQEND
  8
0
  0
POLYLINE
  8
16
 66
1
 10
0.0000
 20
0.0000
 30
0.0000
 40
0.6350
 41
0.6350
 70
0
  0
VERTEX
  8
16
 10
78.7400
 20
65.7225
 30
0.0000
 42
1.0000
  0
VERTEX
  8
16
 10
78.7400
 20
66.3575
 30
0.0000
  0
SEQEND
  8
0
  0
POLYLINE
  8
16
 66
1
 10
0.0000
 20
0.0000
 30
0.0000
 40
1.2700
 41
1.2700
 70
0
  0
VERTEX
  8
16
 10
83.8200
 20
62.2300
 30
0.0000
  0
VERTEX
  8
16
 10
78.7400
 20
62.2300
 30
0.0000
  0
SEQEND
  8
0
  0
POLYLINE
  8
16
 66
1
 10
0.0000
 20
0.0000
 30
0.0000
 40
0.6350
 41
0.6350
 70
0
  0
VERTEX
  8
16
 10
78.7400
 20
62.5475
 30
0.0000
 42
1.0000
  0
VERTEX
  8
16
 10
78.7400
 20
61.9125
 30
0.0000
  0
SEQEND
  8
0
  0
POLYLINE
  8
16
 66
1
 10
0.0000
 20
0.0000
 30
0.0000
 40
0.6350
 41
0.6350
 70
0
  0
VERTEX
  8
16
 10
83.8200
 20
61.9125
 30
0.0000
 42
1.0000
  0
VERTEX
  8
16
 10
83.8200
 20
62.5475
 30
0.0000
  0
SEQEND
  8
0
  0
POLYLINE
  8
16
 66
1
 10
0.0000
 20
0.0000
 30
0.0000
 40
1.2700
 41
1.2700
 70
0
  0
VERTEX
  8
16
 10
40.6400
 20
29.2100
 30
0.0000
  0
VERTEX
  8
16
 10
40.6400
 20
34.2900
 30
0.0000
  0
SEQEND
  8
0
  0
POLYLINE
  8
16
 66
1
 10
0.0000
 20
0.0000
 30
0.0000
 40
0.6350
 41
0.6350
 70
0
  0
VERTEX
  8
16
 10
40.9575
 20
34.2900
 30
0.0000
 42
1.0000
  0
VERTEX
  8
16
 10
40.3225
 20
34.2900
 30
0.0000
  0
SEQEND
  8
0
  0
POLYLINE
  8
16
 66
1
 10
0.0000
 20
0.0000
 30
0.0000
 40
0.6350
 41
0.6350
 70
0
  0
VERTEX
  8
16
 10
40.3225
 20
29.2100
 30
0.0000
 42
1.0000
  0
VERTEX
  8
16
 10
40.9575
 20
29.2100
 30
0.0000
  0
SEQEND
  8
0
  0
POLYLINE
  8
16
 66
1
 10
0.0000
 20
0.0000
 30
0.0000
 40
1.2700
 41
1.2700
 70
0
  0
VERTEX
  8
16
 10
40.6400
 20
34.2900
 30
0.0000
  0
VERTEX
  8
16
 10
58.4200
 20
34.2900
 30
0.0000
  0
SEQEND
  8
0
  0
POLYLINE
  8
16
 66
1
 10
0.0000
 20
0.0000
 30
0.0000
 40
0.6350
 41
0.6350
 70
0
  0
VERTEX
  8
16
 10
58.4200
 20
33.9725
 30
0.0000
 42
1.0000
  0
VERTEX
  8
16
 10
58.4200
 20
34.6075
 30
0.0000
  0
SEQEND
  8
0
  0
POLYLINE
  8
16
 66
1
 10
0.0000
 20
0.0000
 30
0.0000
 40
0.6350
 41
0.6350
 70
0
  0
VERTEX
  8
16
 10
40.6400
 20
34.6075
 30
0.0000
 42
1.0000
  0
VERTEX
  8
16
 10
40.6400
 20
33.9725
 30
0.0000
  0
SEQEND
  8
0
  0
POLYLINE
  8
16
 66
1
 10
0.0000
 20
0.0000
 30
0.0000
 40
1.2700
 41
1.2700
 70
0
  0
VERTEX
  8
16
 10
44.4500
 20
29.2100
 30
0.0000
  0
VERTEX
  8
16
 10
44.4500
 20
31.7500
 30
0.0000
  0
SEQEND
  8
0
  0
POLYLINE
  8
16
 66
1
 10
0.0000
 20
0.0000
 30
0.0000
 40
0.6350
 41
0.6350
 70
0
  0
VERTEX
  8
16
 10
44.7675
 20
31.7500
 30
0.0000
 42
1.0000
  0
VERTEX
  8
16
 10
44.1325
 20
31.7500
 30
0.0000
  0
SEQEND
  8
0
  0
POLYLINE
  8
16
 66
1
 10
0.0000
 20
0.0000
 30
0.0000
 40
0.6350
 41
0.6350
 70
0
  0
VERTEX
  8
16
 10
44.1325
 20
29.2100
 30
0.0000
 42
1.0000
  0
VERTEX
  8
16
 10
44.7675
 20
29.2100
 30
0.0000
  0
SEQEND
  8
0
  0
POLYLINE
  8
16
 66
1
 10
0.0000
 20
0.0000
 30
0.0000
 40
1.2700
 41
1.2700
 70
0
  0
VERTEX
  8
16
 10
44.4500
 20
31.7500
 30
0.0000
  0
VERTEX
  8
16
 10
58.4200
 20
31.7500
 30
0.0000
  0
SEQEND
  8
0
  0
POLYLINE
  8
16
 66
1
 10
0.0000
 20
0.0000
 30
0.0000
 40
0.6350
 41
0.6350
 70
0
  0
VERTEX
  8
16
 10
58.4200
 20
31.4325
 30
0.0000
 42
1.0000
  0
VERTEX
  8
16
 10
58.4200
 20
32.0675
 30
0.0000
  0
SEQEND
  8
0
  0
POLYLINE
  8
16
 66
1
 10
0.0000
 20
0.0000
 30
0.0000
 40
0.6350
 41
0.6350
 70
0
  0
VERTEX
  8
16
 10
44.4500
 20
32.0675
 30
0.0000
 42
1.0000
  0
VERTEX
  8
16
 10
44.4500
 20
31.4325
 30
0.0000
  0
SEQEND
  8
0
  0
POLYLINE
  8
16
 66
1
 10
0.0000
 20
0.0000
 30
0.0000
 40
1.2700
 41
1.2700
 70
0
  0
VERTEX
  8
16
 10
48.2600
 20
29.2100
 30
0.0000
  0
VERTEX
  8
16
 10
58.4200
 20
29.2100
 30
0.0000
  0
SEQEND
  8
0
  0
POLYLINE
  8
16
 66
1
 10
0.0000
 20
0.0000
 30
0.0000
 40
0.6350
 41
0.6350
 70
0
  0
VERTEX
  8
16
 10
58.4200
 20
28.8925
 30
0.0000
 42
1.0000
  0
VERTEX
  8
16
 10
58.4200
 20
29.5275
 30
0.0000
  0
SEQEND
  8
0
  0
POLYLINE
  8
16
 66
1
 10
0.0000
 20
0.0000
 30
0.0000
 40
0.6350
 41
0.6350
 70
0
  0
VERTEX
  8
16
 10
48.2600
 20
29.5275
 30
0.0000
 42
1.0000
  0
VERTEX
  8
16
 10
48.2600
 20
28.8925
 30
0.0000
  0
SEQEND
  8
0
  0
POLYLINE
  8
16
 66
1
 10
0.0000
 20
0.0000
 30
0.0000
 40
1.2700
 41
1.2700
 70
0
  0
VERTEX
  8
16
 10
20.3200
 20
29.2100
 30
0.0000
  0
VERTEX
  8
16
 10
20.3200
 20
34.2900
 30
0.0000
  0
SEQEND
  8
0
  0
POLYLINE
  8
16
 66
1
 10
0.0000
 20
0.0000
 30
0.0000
 40
0.6350
 41
0.6350
 70
0
  0
VERTEX
  8
16
 10
20.6375
 20
34.2900
 30
0.0000
 42
1.0000
  0
VERTEX
  8
16
 10
20.0025
 20
34.2900
 30
0.0000
  0
SEQEND
  8
0
  0
POLYLINE
  8
16
 66
1
 10
0.0000
 20
0.0000
 30
0.0000
 40
0.6350
 41
0.6350
 70
0
  0
VERTEX
  8
16
 10
20.0025
 20
29.2100
 30
0.0000
 42
1.0000
  0
VERTEX
  8
16
 10
20.6375
 20
29.2100
 30
0.0000
  0
SEQEND
  8
0
  0
POLYLINE
  8
16
 66
1
 10
0.0000
 20
0.0000
 30
0.0000
 40
1.2700
 41
1.2700
 70
0
  0
VERTEX
  8
16
 10
20.3200
 20
34.2900
 30
0.0000
  0
VERTEX
  8
16
 10
33.0200
 20
34.2900
 30
0.0000
  0
SEQEND
  8
0
  0
POLYLINE
  8
16
 66
1
 10
0.0000
 20
0.0000
 30
0.0000
 40
0.6350
 41
0.6350
 70
0
  0
VERTEX
  8
16
 10
33.0200
 20
33.9725
 30
0.0000
 42
1.0000
  0
VERTEX
  8
16
 10
33.0200
 20
34.6075
 30
0.0000
  0
SEQEND
  8
0
  0
POLYLINE
  8
16
 66
1
 10
0.0000
 20
0.0000
 30
0.0000
 40
0.6350
 41
0.6350
 70
0
  0
VERTEX
  8
16
 10
20.3200
 20
34.6075
 30
0.0000
 42
1.0000
  0
VERTEX
  8
16
 10
20.3200
 20
33.9725
 30
0.0000
  0
SEQEND
  8
0
  0
POLYLINE
  8
16
 66
1
 10
0.0000
 20
0.0000
 30
0.0000
 40
1.2700
 41
1.2700
 70
0
  0
VERTEX
  8
16
 10
33.0200
 20
26.6700
 30
0.0000
  0
VERTEX
  8
16
 10
58.4200
 20
26.6700
 30
0.0000
  0
SEQEND
  8
0
  0
POLYLINE
  8
16
 66
1
 10
0.0000
 20
0.0000
 30
0.0000
 40
0.6350
 41
0.6350
 70
0
  0
VERTEX
  8
16
 10
58.4200
 20
26.3525
 30
0.0000
 42
1.0000
  0
VERTEX
  8
16
 10
58.4200
 20
26.9875
 30
0.0000
  0
SEQEND
  8
0
  0
POLYLINE
  8
16
 66
1
 10
0.0000
 20
0.0000
 30
0.0000
 40
0.6350
 41
0.6350
 70
0
  0
VERTEX
  8
16
 10
33.0200
 20
26.9875
 30
0.0000
 42
1.0000
  0
VERTEX
  8
16
 10
33.0200
 20
26.3525
 30
0.0000
  0
SEQEND
  8
0
  0
POLYLINE
  8
16
 66
1
 10
0.0000
 20
0.0000
 30
0.0000
 40
1.2700
 41
1.2700
 70
0
  0
VERTEX
  8
16
 10
33.0200
 20
34.2900
 30
0.0000
  0
VERTEX
  8
16
 10
33.0200
 20
26.6700
 30
0.0000
  0
SEQEND
  8
0
  0
POLYLINE
  8
16
 66
1
 10
0.0000
 20
0.0000
 30
0.0000
 40
0.6350
 41
0.6350
 70
0
  0
VERTEX
  8
16
 10
32.7025
 20
26.6700
 30
0.0000
 42
1.0000
  0
VERTEX
  8
16
 10
33.3375
 20
26.6700
 30
0.0000
  0
SEQEND
  8
0
  0
POLYLINE
  8
16
 66
1
 10
0.0000
 20
0.0000
 30
0.0000
 40
0.6350
 41
0.6350
 70
0
  0
VERTEX
  8
16
 10
33.3375
 20
34.2900
 30
0.0000
 42
1.0000
  0
VERTEX
  8
16
 10
32.7025
 20
34.2900
 30
0.0000
  0
SEQEND
  8
0
  0
POLYLINE
  8
16
 66
1
 10
0.0000
 20
0.0000
 30
0.0000
 40
1.2700
 41
1.2700
 70
0
  0
VERTEX
  8
16
 10
24.1300
 20
29.2100
 30
0.0000
  0
VERTEX
  8
16
 10
24.1300
 20
31.7500
 30
0.0000
  0
SEQEND
  8
0
  0
POLYLINE
  8
16
 66
1
 10
0.0000
 20
0.0000
 30
0.0000
 40
0.6350
 41
0.6350
 70
0
  0
VERTEX
  8
16
 10
24.4475
 20
31.7500
 30
0.0000
 42
1.0000
  0
VERTEX
  8
16
 10
23.8125
 20
31.7500
 30
0.0000
  0
SEQEND
  8
0
  0
POLYLINE
  8
16
 66
1
 10
0.0000
 20
0.0000
 30
0.0000
 40
0.6350
 41
0.6350
 70
0
  0
VERTEX
  8
16
 10
23.8125
 20
29.2100
 30
0.0000
 42
1.0000
  0
VERTEX
  8
16
 10
24.4475
 20
29.2100
 30
0.0000
  0
SEQEND
  8
0
  0
POLYLINE
  8
16
 66
1
 10
0.0000
 20
0.0000
 30
0.0000
 40
1.2700
 41
1.2700
 70
0
  0
VERTEX
  8
16
 10
24.1300
 20
31.7500
 30
0.0000
  0
VERTEX
  8
16
 10
30.4800
 20
31.7500
 30
0.0000
  0
SEQEND
  8
0
  0
POLYLINE
  8
16
 66
1
 10
0.0000
 20
0.0000
 30
0.0000
 40
0.6350
 41
0.6350
 70
0
  0
VERTEX
  8
16
 10
30.4800
 20
31.4325
 30
0.0000
 42
1.0000
  0
VERTEX
  8
16
 10
30.4800
 20
32.0675
 30
0.0000
  0
SEQEND
  8
0
  0
POLYLINE
  8
16
 66
1
 10
0.0000
 20
0.0000
 30
0.0000
 40
0.6350
 41
0.6350
 70
0
  0
VERTEX
  8
16
 10
24.1300
 20
32.0675
 30
0.0000
 42
1.0000
  0
VERTEX
  8
16
 10
24.1300
 20
31.4325
 30
0.0000
  0
SEQEND
  8
0
  0
POLYLINE
  8
16
 66
1
 10
0.0000
 20
0.0000
 30
0.0000
 40
1.2700
 41
1.2700
 70
0
  0
VERTEX
  8
16
 10
30.4800
 20
24.1300
 30
0.0000
  0
VERTEX
  8
16
 10
58.4200
 20
24.1300
 30
0.0000
  0
SEQEND
  8
0
  0
POLYLINE
  8
16
 66
1
 10
0.0000
 20
0.0000
 30
0.0000
 40
0.6350
 41
0.6350
 70
0
  0
VERTEX
  8
16
 10
58.4200
 20
23.8125
 30
0.0000
 42
1.0000
  0
VERTEX
  8
16
 10
58.4200
 20
24.4475
 30
0.0000
  0
SEQEND
  8
0
  0
POLYLINE
  8
16
 66
1
 10
0.0000
 20
0.0000
 30
0.0000
 40
0.6350
 41
0.6350
 70
0
  0
VERTEX
  8
16
 10
30.4800
 20
24.4475
 30
0.0000
 42
1.0000
  0
VERTEX
  8
16
 10
30.4800
 20
23.8125
 30
0.0000
  0
SEQEND
  8
0
  0
POLYLINE
  8
16
 66
1
 10
0.0000
 20
0.0000
 30
0.0000
 40
1.2700
 41
1.2700
 70
0
  0
VERTEX
  8
16
 10
30.4800
 20
31.7500
 30
0.0000
  0
VERTEX
  8
16
 10
30.4800
 20
24.1300
 30
0.0000
  0
SEQEND
  8
0
  0
POLYLINE
  8
16
 66
1
 10
0.0000
 20
0.0000
 30
0.0000
 40
0.6350
 41
0.6350
 70
0
  0
VERTEX
  8
16
 10
30.1625
 20
24.1300
 30
0.0000
 42
1.0000
  0
VERTEX
  8
16
 10
30.7975
 20
24.1300
 30
0.0000
  0
SEQEND
  8
0
  0
POLYLINE
  8
16
 66
1
 10
0.0000
 20
0.0000
 30
0.0000
 40
0.6350
 41
0.6350
 70
0
  0
VERTEX
  8
16
 10
30.7975
 20
31.7500
 30
0.0000
 42
1.0000
  0
VERTEX
  8
16
 10
30.1625
 20
31.7500
 30
0.0000
  0
SEQEND
  8
0
  0
POLYLINE
  8
16
 66
1
 10
0.0000
 20
0.0000
 30
0.0000
 40
1.2700
 41
1.2700
 70
0
  0
VERTEX
  8
16
 10
27.9400
 20
29.2100
 30
0.0000
  0
VERTEX
  8
16
 10
27.9400
 20
21.5900
 30
0.0000
  0
SEQEND
  8
0
  0
POLYLINE
  8
16
 66
1
 10
0.0000
 20
0.0000
 30
0.0000
 40
0.6350
 41
0.6350
 70
0
  0
VERTEX
  8
16
 10
27.6225
 20
21.5900
 30
0.0000
 42
1.0000
  0
VERTEX
  8
16
 10
28.2575
 20
21.5900
 30
0.0000
  0
SEQEND
  8
0
  0
POLYLINE
  8
16
 66
1
 10
0.0000
 20
0.0000
 30
0.0000
 40
0.6350
 41
0.6350
 70
0
  0
VERTEX
  8
16
 10
28.2575
 20
29.2100
 30
0.0000
 42
1.0000
  0
VERTEX
  8
16
 10
27.6225
 20
29.2100
 30
0.0000
  0
SEQEND
  8
0
  0
POLYLINE
  8
16
 66
1
 10
0.0000
 20
0.0000
 30
0.0000
 40
1.2700
 41
1.2700
 70
0
  0
VERTEX
  8
16
 10
27.9400
 20
21.5900
 30
0.0000
  0
VERTEX
  8
16
 10
58.4200
 20
21.5900
 30
0.0000
  0
SEQEND
  8
0
  0
POLYLINE
  8
16
 66
1
 10
0.0000
 20
0.0000
 30
0.0000
 40
0.6350
 41
0.6350
 70
0
  0
VERTEX
  8
16
 10
58.4200
 20
21.2725
 30
0.0000
 42
1.0000
  0
VERTEX
  8
16
 10
58.4200
 20
21.9075
 30
0.0000
  0
SEQEND
  8
0
  0
POLYLINE
  8
16
 66
1
 10
0.0000
 20
0.0000
 30
0.0000
 40
0.6350
 41
0.6350
 70
0
  0
VERTEX
  8
16
 10
27.9400
 20
21.9075
 30
0.0000
 42
1.0000
  0
VERTEX
  8
16
 10
27.9400
 20
21.2725
 30
0.0000
  0
SEQEND
  8
0
  0
ENDSEC
  0
EOF
